<?xml version="1.0" encoding="utf-8"?>
<!-- Generator: Adobe Illustrator 24.0.0, SVG Export Plug-In . SVG Version: 6.00 Build 0)  -->
<svg version="1.1" id="Layer_1" xmlns="http://www.w3.org/2000/svg" xmlns:xlink="http://www.w3.org/1999/xlink" x="0px" y="0px"
	 viewBox="0 0 500 500" style="enable-background:new 0 0 500 500;" xml:space="preserve">
<style type="text/css">
	.st0{fill:#48267F;}
	.st1{fill:#FFFFFF;}
	.st2{fill:#F3901C;}
</style>
<g>
	<path class="st0" d="M172.06,327.74l-8-32.49L53.88,405.06c5.96,7.51,12.39,14.77,19.33,21.72c6.61,6.61,13.5,12.75,20.63,18.47
		l110.02-109.66L172.06,327.74z"/>
	<path class="st0" d="M426.78,73.22c-97.63-97.63-255.93-97.63-353.56,0c-82.06,82.06-95.14,206.97-39.25,302.7L154.5,255.79
		l-8.7-34.71l75.82-75.82l105.06,28.07l29.08,103.74l-76.99,76.98l-34.92-8.72L123.23,465.55c95.84,56.45,221.24,43.53,303.55-38.77
		C524.41,329.15,524.41,170.85,426.78,73.22z"/>
	<path class="st1" d="M278.76,354.05l76.99-76.98l-29.08-103.74l-105.06-28.07l-75.82,75.82l8.7,34.71L33.96,375.92
		c5.88,10.06,12.52,19.8,19.92,29.14l110.17-109.81l8,32.49l31.81,7.84L93.85,445.25c9.41,7.54,19.23,14.32,29.38,20.3
		l120.61-120.22L278.76,354.05z M199.21,300.79l-18.52-70.94l51.04-51.04l69.83,19.62l19.55,69.76l-51.87,51.87L199.21,300.79z"/>
	<polygon class="st2" points="321.11,268.2 301.56,198.44 231.73,178.81 180.69,229.85 199.21,300.79 269.25,320.07 	"/>
</g>
</svg>
