<?xml version="1.0" standalone="no"?>
<!DOCTYPE svg PUBLIC "-//W3C//DTD SVG 20010904//EN"
 "http://www.w3.org/TR/2001/REC-SVG-20010904/DTD/svg10.dtd">
<svg version="1.0" xmlns="http://www.w3.org/2000/svg"
 width="300.000000pt" height="300.000000pt" viewBox="0 0 300.000000 300.000000"
 preserveAspectRatio="xMidYMid meet">
<metadata>
Created by potrace 1.10, written by Peter Selinger 2001-2011
</metadata>
<g transform="translate(0.000000,300.000000) scale(0.100000,-0.100000)"
fill="#000000" stroke="none">
<path d="M1553 2811 c-24 -17 -45 -41 -48 -54 -4 -12 -5 -160 -3 -327 3 -294
4 -306 25 -342 l22 -38 -23 -23 c-25 -25 -74 -160 -78 -216 -2 -28 2 -37 22
-48 14 -7 42 -13 63 -13 42 0 41 1 26 -87 -7 -42 -8 -68 -1 -76 6 -8 6 -49 -1
-122 -13 -127 -12 -414 2 -428 5 -5 36 4 77 23 62 29 66 34 50 46 -11 8 -30
11 -49 7 l-30 -6 6 104 c3 57 13 127 21 154 23 72 20 85 -9 52 l-25 -28 -1 78
c-1 43 -1 122 -1 175 1 80 -2 101 -17 119 -15 18 -16 28 -7 51 9 24 7 31 -11
49 -17 17 -24 19 -41 10 -23 -12 -23 -11 -3 67 17 60 42 83 83 76 32 -6 105
-47 146 -82 11 -9 31 -26 43 -36 12 -10 35 -19 51 -18 17 0 28 -4 28 -13 0
-18 -29 -27 -72 -20 -56 9 -71 -16 -70 -120 1 -47 4 -91 8 -97 22 -35 31 -155
21 -274 -5 -68 -13 -124 -17 -124 -11 0 -20 54 -20 119 0 66 -40 184 -64 189
-14 3 -13 -3 3 -50 11 -33 21 -101 26 -176 10 -163 37 -326 56 -330 25 -4 119
57 119 78 0 10 -5 22 -10 25 -16 10 -79 -17 -86 -37 -3 -10 -10 -18 -15 -18
-13 0 -11 38 3 42 8 3 17 62 26 169 21 252 20 314 -5 376 -14 36 -18 199 -4
207 4 3 17 -1 27 -9 23 -17 71 -20 76 -4 2 7 201 -102 458 -251 250 -144 469
-264 485 -267 43 -7 112 44 120 89 3 18 5 164 3 323 l-3 290 -27 50 c-14 28
-41 64 -60 81 -39 37 -1190 703 -1228 710 -18 4 -37 -3 -67 -25z m92 -27 c19
-15 19 -15 -10 -8 -16 4 -39 11 -50 15 -17 6 -15 8 10 8 17 0 39 -7 50 -15z
m76 -65 c49 -28 94 -47 100 -43 7 4 9 3 6 -4 -9 -13 119 -86 135 -76 6 4 8 3
5 -4 -9 -13 149 -105 165 -96 7 5 8 3 3 -6 -6 -10 -4 -12 9 -7 9 4 15 3 12 -2
-8 -12 102 -73 116 -65 7 4 8 3 4 -4 -8 -14 50 -46 66 -36 7 4 8 3 4 -4 -8
-14 50 -46 66 -36 7 4 8 3 4 -4 -8 -14 50 -46 66 -36 7 4 8 3 4 -4 -8 -14 50
-46 66 -36 6 4 8 3 4 -4 -8 -14 100 -76 115 -66 8 4 9 3 5 -4 -8 -14 30 -36
46 -26 6 4 8 3 5 -3 -4 -6 6 -19 21 -28 37 -24 59 -51 88 -110 24 -49 24 -53
24 -343 l0 -293 -26 -25 c-19 -20 -31 -24 -52 -19 -25 6 -866 486 -886 505 -4
4 -4 23 2 42 6 18 13 46 17 62 5 26 8 27 23 14 37 -32 192 -116 197 -107 10
15 -1 25 -97 79 -51 29 -103 61 -115 72 -12 11 -26 18 -31 14 -8 -4 -31 -60
-48 -115 -3 -9 -20 1 -52 31 -63 59 -117 93 -170 109 -49 14 -62 33 -86 127
-12 45 -14 68 -6 81 6 12 10 109 10 244 0 212 1 226 21 251 30 38 59 33 160
-25z m1113 -640 c63 -74 67 -98 64 -434 -2 -188 -7 -300 -13 -302 -7 -2 -10
107 -10 314 l0 318 -27 51 c-15 29 -47 69 -70 89 -38 33 -40 36 -12 21 18 -8
48 -34 68 -57z m-1274 -261 c0 -10 -11 -10 -28 0 -7 5 -10 16 -6 27 7 17 8 17
21 -1 7 -10 13 -21 13 -26z"/>
<path d="M2036 2415 c4 -18 1 -27 -10 -31 -17 -7 -22 -34 -6 -34 5 0 13 -18
16 -40 4 -26 15 -45 31 -55 13 -9 28 -27 33 -41 9 -23 11 -24 26 -10 19 20 30
20 38 1 8 -22 25 -18 19 4 -3 13 2 23 17 31 20 11 21 13 5 30 -10 11 -18 32
-19 49 -1 19 -11 37 -29 52 -16 12 -33 33 -38 47 -9 24 -10 24 -23 6 -14 -18
-15 -18 -33 -1 -27 24 -34 21 -27 -8z m91 -55 c12 -10 27 -35 33 -56 10 -30
10 -39 -3 -51 -32 -32 -97 27 -97 88 0 44 31 53 67 19z"/>
<path d="M1884 2300 c1 -46 7 -49 29 -17 9 12 16 17 16 10 1 -6 -6 -18 -14
-27 -8 -8 -15 -19 -15 -25 0 -16 -17 -13 -24 4 -6 16 -36 21 -36 5 0 -5 10
-18 21 -29 15 -14 22 -33 23 -65 1 -48 26 -92 26 -46 0 23 2 22 39 -15 42 -43
78 -53 97 -26 7 9 16 12 21 8 13 -14 -28 -37 -64 -37 -36 0 -42 -10 -18 -30
12 -10 15 -10 15 4 0 21 48 22 56 1 11 -26 35 -18 29 10 -3 14 -7 37 -10 51
-3 14 -1 32 6 40 8 10 8 22 0 46 -8 23 -8 33 0 39 8 4 3 11 -12 19 -31 16 -68
60 -69 82 0 9 -5 20 -11 24 -16 9 -30 -18 -17 -33 7 -9 7 -13 -1 -13 -6 0 -14
7 -17 15 -4 8 -14 15 -24 15 -10 0 -20 7 -24 15 -11 29 -23 15 -22 -25z m125
-71 c31 -34 55 -98 45 -123 -15 -40 -61 -38 -99 3 -16 18 -17 25 -7 42 7 11 8
19 2 19 -5 0 -10 -4 -10 -10 0 -25 -20 -6 -25 24 -14 75 42 102 94 45z"/>
<path d="M1590 2282 c-32 -16 -35 -20 -34 -62 0 -61 45 -130 83 -130 14 0 31
4 37 8 18 13 54 79 54 101 0 11 5 21 10 21 6 0 10 11 10 26 0 48 -94 69 -160
36z m100 -32 c21 -13 -4 -55 -43 -71 -27 -11 -32 -10 -48 10 -14 17 -16 28 -9
41 13 25 73 37 100 20z m1 -78 c-15 -28 -38 -44 -57 -40 -31 6 -25 23 14 40
49 21 55 21 43 0z"/>
<path d="M2146 2176 c3 -7 -2 -21 -11 -30 -13 -13 -14 -20 -5 -31 6 -7 11 -31
12 -52 0 -30 5 -41 22 -49 11 -5 27 -21 34 -36 14 -30 28 -36 34 -16 3 9 11 8
31 -5 14 -9 29 -13 32 -8 3 5 1 12 -4 16 -14 8 -2 35 15 35 8 0 14 7 14 15 0
8 -4 15 -10 15 -10 0 -23 40 -24 72 -1 10 -5 18 -11 19 -16 1 -45 31 -45 45 0
21 -21 27 -34 9 -11 -15 -13 -15 -25 -1 -16 20 -32 21 -25 2z m90 -63 c41 -44
44 -113 5 -113 -39 0 -92 86 -77 125 9 23 45 18 72 -12z"/>
<path d="M2508 1807 c-76 -30 -86 -42 -13 -17 32 11 62 20 67 20 4 0 8 -15 8
-33 l0 -34 91 15 c74 12 92 13 99 2 6 -10 17 -6 45 16 37 28 38 29 14 35 -42
12 -69 10 -63 -5 4 -9 -9 -15 -48 -20 -29 -3 -70 -9 -90 -12 -37 -6 -38 -6
-38 25 0 36 2 36 -72 8z"/>
<path d="M2530 1619 c0 -76 3 -94 18 -105 9 -7 20 -14 25 -14 4 0 7 41 7 91 0
76 -3 94 -17 105 -10 7 -21 14 -25 14 -5 0 -8 -41 -8 -91z"/>
<path d="M2610 1596 c0 -107 1 -116 22 -130 12 -9 25 -16 28 -16 3 0 4 53 2
117 -3 95 -6 119 -20 130 -9 7 -20 13 -24 13 -5 0 -8 -51 -8 -114z"/>
<path d="M2690 1571 c0 -136 0 -139 25 -155 13 -9 26 -16 27 -16 2 0 2 64 0
142 -3 119 -6 144 -20 154 -9 8 -20 14 -24 14 -5 0 -8 -62 -8 -139z"/>
<path d="M2450 1632 c0 -53 3 -62 25 -76 l26 -17 -3 62 c-2 51 -7 64 -25 77
-23 14 -23 14 -23 -46z"/>
<path d="M1313 2600 c-58 -34 -103 -67 -103 -75 0 -12 8 -10 38 9 20 13 70 42
110 65 39 23 72 46 72 51 0 17 -12 12 -117 -50z"/>
<path d="M1335 2555 c-38 -24 -82 -49 -97 -56 -16 -6 -28 -18 -28 -25 0 -19 4
-18 48 10 20 13 67 40 105 60 37 20 67 41 67 46 0 18 -25 9 -95 -35z"/>
<path d="M1263 2458 c-76 -43 -70 -66 7 -25 33 17 60 38 60 45 0 17 -8 15 -67
-20z"/>
<path d="M1070 2382 c-25 -16 -65 -39 -90 -52 -77 -42 -80 -46 -80 -122 0 -39
4 -68 10 -68 6 0 10 -12 11 -27 0 -26 1 -25 19 12 10 22 22 53 26 69 7 23 28
41 92 78 l82 49 0 44 c0 53 -8 55 -70 17z m33 -49 c-8 -24 -24 -43 -34 -43
-16 0 -9 39 9 49 25 15 32 13 25 -6z m-63 -37 c0 -16 -14 -36 -26 -36 -14 0
-19 22 -7 33 7 8 33 10 33 3z m-60 -39 c0 -14 -20 -37 -32 -37 -12 0 -10 24 4
38 16 16 28 15 28 -1z"/>
<path d="M750 2357 c-19 -13 -65 -40 -102 -60 -65 -36 -85 -53 -75 -63 8 -9
217 118 217 132 0 18 1 18 -40 -9z"/>
<path d="M678 2257 c-59 -34 -108 -68 -108 -74 0 -15 16 -17 24 -4 3 5 49 32
101 61 52 29 95 59 95 67 0 7 -1 13 -2 13 -2 0 -51 -29 -110 -63z"/>
<path d="M283 2289 c-123 -61 -238 -275 -217 -404 12 -76 54 -128 54 -67 0 40
44 124 90 171 76 78 154 97 196 47 13 -15 24 -35 24 -44 0 -29 17 1 34 57 18
61 21 157 7 194 -26 68 -105 87 -188 46z m146 -33 c28 -30 38 -113 21 -166
-14 -44 -21 -48 -40 -25 -7 8 -18 15 -24 15 -23 0 -35 22 -25 47 22 59 20 81
-11 117 -31 34 -31 35 -8 38 38 6 65 -3 87 -26z m-94 -23 c38 -37 -2 -146 -65
-178 -34 -18 -58 -11 -70 21 -22 57 49 168 112 173 4 1 14 -7 23 -16z m-146
-181 c11 -21 8 -30 -26 -82 -21 -32 -43 -66 -50 -76 -10 -16 -12 -8 -12 46 1
68 10 102 44 158 l20 33 6 -28 c3 -15 11 -38 18 -51z"/>
<path d="M628 2172 c-32 -19 -58 -40 -58 -48 0 -13 88 32 118 61 29 27 -6 20
-60 -13z"/>
<path d="M776 2153 c-39 -37 -55 -57 -47 -62 17 -11 -105 -166 -236 -302 -63
-64 -102 -113 -98 -120 13 -20 203 181 324 343 27 36 48 55 57 51 8 -3 14 1
14 8 0 8 11 41 25 73 13 33 23 61 22 62 -1 1 -29 -23 -61 -53z"/>
<path d="M972 2090 c0 -8 3 -26 7 -40 l7 -25 12 23 c11 18 10 22 -2 22 -8 0
-17 8 -19 18 -3 11 -5 12 -5 2z"/>
<path d="M1128 2037 l-38 -22 0 -192 c0 -192 0 -193 20 -176 23 20 25 24 8 21
-9 -2 -14 14 -16 51 -3 45 0 57 20 75 12 11 25 20 28 19 3 -1 20 7 39 18 51
30 29 35 -25 5 -50 -28 -64 -32 -64 -16 0 5 36 30 80 56 81 46 115 75 63 52
-15 -7 -30 -15 -33 -18 -3 -3 -29 -17 -58 -32 -39 -21 -52 -24 -52 -14 0 8 36
36 80 63 44 26 80 51 80 55 0 4 -7 5 -15 2 -8 -4 -15 -10 -15 -15 0 -5 -3 -8
-7 -7 -13 3 -93 -42 -93 -52 0 -5 -7 -7 -15 -4 -26 10 -17 23 45 61 77 48 79
64 3 19 -61 -36 -70 -38 -58 -9 5 10 7 24 6 31 -1 6 2 12 6 12 4 0 19 9 33 20
33 26 24 24 -22 -3z"/>
<path d="M773 2013 c-22 -15 -23 -22 -23 -145 l0 -129 30 18 30 17 0 128 c0
70 -3 128 -7 127 -5 0 -18 -7 -30 -16z"/>
<path d="M673 1908 c-20 -10 -22 -19 -25 -117 -2 -58 -2 -107 -2 -109 1 -1 15
5 33 15 l31 18 0 103 c0 56 -3 102 -7 101 -5 0 -18 -5 -30 -11z"/>
<path d="M568 1789 c-26 -19 -28 -26 -28 -95 l0 -75 30 16 c30 15 30 17 30 95
0 44 -1 80 -2 80 -2 0 -15 -10 -30 -21z"/>
<path d="M458 1657 c-18 -15 -28 -34 -30 -59 -4 -42 5 -47 40 -20 19 15 23 26
20 60 l-3 42 -27 -23z"/>
<path d="M780 1641 c-64 -22 -120 -78 -138 -137 -12 -42 -8 -58 15 -50 12 5
13 2 7 -11 -4 -10 -9 -47 -11 -83 -2 -52 -1 -60 7 -41 6 14 8 31 5 39 -7 20 5
63 17 56 6 -4 7 2 3 17 -4 13 -7 26 -7 29 -1 60 5 74 41 109 37 36 99 61 148
61 15 0 16 -2 3 -10 -11 -8 -8 -9 13 -4 23 5 27 3 27 -15 0 -16 -7 -21 -27
-22 l-28 -1 25 -7 c17 -5 21 -9 12 -15 -6 -4 -12 -15 -12 -24 1 -24 48 30 56
64 14 56 -63 78 -156 45z"/>
<path d="M487 1523 c-15 -14 -4 -123 12 -123 4 0 8 17 9 37 3 44 7 50 25 35 8
-7 17 -9 20 -5 4 3 20 -8 35 -25 29 -33 42 -39 42 -23 0 19 -53 72 -91 91 -43
22 -43 22 -52 13z"/>
<path d="M856 1463 c2 -51 7 -71 20 -80 10 -7 14 -13 8 -13 -5 0 -1 -5 9 -11
13 -8 22 -7 32 1 21 17 9 30 -26 30 -19 0 -29 5 -29 15 0 8 5 15 11 15 10 0
39 59 39 79 0 24 -30 -3 -31 -28 -1 -20 -4 -16 -12 17 -15 62 -23 51 -21 -25z"/>
<path d="M348 1423 c-24 -6 -23 -50 1 -63 25 -13 73 -14 52 -1 -28 18 -20 38
15 36 18 0 41 2 51 6 43 16 -66 36 -119 22z"/>
<path d="M926 1341 c-7 -11 17 -21 51 -21 21 0 23 -3 14 -14 -10 -12 -9 -13 7
-9 11 2 23 -1 27 -8 6 -8 4 -10 -6 -5 -8 4 -4 -1 9 -10 60 -44 -9 -61 -74 -18
-21 15 -32 19 -25 10 7 -9 10 -16 5 -16 -5 0 8 -11 28 -25 45 -30 63 -31 108
-4 l34 21 -56 54 c-43 41 -63 54 -87 54 -16 0 -32 -4 -35 -9z"/>
<path d="M350 1325 c0 -19 28 -33 81 -40 l44 -5 -30 14 c-16 9 -23 16 -15 16
16 2 -46 28 -67 29 -7 1 -13 -6 -13 -14z"/>
<path d="M400 1260 c14 -11 44 -27 68 -36 23 -9 42 -20 42 -24 0 -4 18 -15 40
-25 30 -14 40 -24 40 -42 0 -12 3 -23 6 -23 12 0 33 28 26 35 -4 4 -7 12 -7
18 -1 7 -6 11 -13 10 -7 -2 -12 2 -12 7 0 6 -5 10 -11 10 -13 0 -86 50 -74 51
11 0 -57 23 -102 33 l-28 7 25 -21z"/>
<path d="M822 1234 c1 -9 9 -19 17 -22 9 -3 11 0 5 9 -4 8 5 4 20 -9 27 -21
75 -29 89 -15 10 10 -30 34 -64 38 -17 3 -40 7 -51 11 -15 4 -19 2 -16 -12z"/>
<path d="M790 1210 c8 -15 8 -20 -3 -20 -8 0 -14 -7 -14 -15 0 -8 4 -12 9 -9
4 3 8 2 8 -3 0 -4 3 -18 6 -29 4 -15 -2 -28 -17 -43 -16 -15 -20 -24 -12 -32
15 -15 53 28 53 62 0 14 -7 32 -16 40 -14 12 -14 14 2 26 14 10 15 15 4 28
-18 22 -33 19 -20 -5z"/>
<path d="M622 1108 c-16 -16 -15 -50 1 -73 13 -17 14 -17 20 4 3 11 2 23 -3
26 -4 2 -5 16 -2 30 5 28 2 31 -16 13z"/>
<path d="M720 1068 c7 -10 10 -25 6 -33 -7 -18 -36 -20 -36 -2 0 8 -4 7 -10
-3 -8 -13 -10 -13 -10 0 0 9 -3 11 -10 4 -6 -6 -8 -18 -4 -27 8 -22 53 -21 82
2 l24 18 -27 29 c-15 16 -22 21 -15 12z"/>
<path d="M1600 870 c0 -15 68 -40 104 -39 26 1 23 3 -13 9 -24 4 -49 14 -56
23 -13 19 -35 23 -35 7z"/>
<path d="M1755 860 c-10 -11 -13 -20 -7 -20 6 0 14 5 17 10 3 6 22 10 41 10
29 0 34 -3 34 -24 0 -14 5 -28 10 -31 6 -4 10 6 10 24 0 26 -5 31 -37 40 -49
14 -47 14 -68 -9z"/>
<path d="M1530 835 c0 -17 5 -25 13 -22 6 2 12 12 12 22 0 10 -6 20 -12 23 -8
2 -13 -6 -13 -23z"/>
<path d="M1905 790 c-42 -8 -35 -11 28 -15 39 -2 61 -14 40 -22 -7 -3 -23 -13
-35 -23 -31 -25 -13 -45 31 -35 22 5 31 12 31 26 0 28 -28 79 -43 78 -6 -1
-30 -5 -52 -9z"/>
<path d="M1615 764 c-34 -17 -45 -31 -45 -57 0 -16 3 -16 37 3 51 27 136 27
182 -1 37 -23 46 -20 36 11 -17 54 -142 80 -210 44z"/>
<path d="M1400 726 c0 -17 7 -26 26 -30 40 -10 55 11 25 35 -32 26 -51 24 -51
-5z"/>
<path d="M2631 697 c-1 -39 -17 -65 -54 -89 -18 -11 -24 -18 -14 -14 9 3 17 2
17 -2 0 -9 -206 -132 -220 -132 -6 0 -10 -4 -10 -10 0 -9 57 18 110 52 14 9
54 32 89 51 55 29 66 40 81 78 11 28 14 53 9 69 l-7 25 -1 -28z"/>
<path d="M1978 648 c-3 -20 -9 -23 -48 -23 -71 0 -93 -12 -87 -45 5 -23 2 -29
-16 -34 -37 -10 -59 -7 -71 9 -6 9 -28 18 -48 21 -30 5 -41 2 -62 -19 -22 -22
-30 -25 -58 -16 -50 14 -60 12 -56 -13 2 -18 13 -25 46 -32 41 -10 42 -11 36
-43 -6 -29 -4 -33 16 -33 19 0 21 4 16 26 -6 22 -4 25 13 19 11 -3 22 -1 26 5
4 6 -6 10 -24 10 -38 0 -41 22 -6 38 40 18 102 26 109 13 16 -25 96 -2 96 27
0 17 48 26 75 14 21 -10 27 -8 45 15 11 14 20 39 20 54 0 34 -17 39 -22 7z"/>
<path d="M1400 637 c0 -15 7 -39 16 -52 13 -20 19 -22 41 -14 14 5 41 7 60 3
32 -6 34 -5 31 17 -4 28 -50 43 -90 29 -25 -8 -30 -6 -43 18 l-14 27 -1 -28z"/>
<path d="M1777 649 c-9 -5 -36 -14 -60 -19 l-42 -9 48 4 c27 3 58 12 70 20 24
17 12 20 -16 4z"/>
<path d="M2403 509 c-29 -17 -53 -33 -53 -36 0 -5 89 44 105 58 16 16 1 9 -52
-22z"/>
<path d="M1930 481 c-17 -5 -21 -9 -12 -15 6 -4 16 -5 21 -1 5 3 12 1 15 -4 4
-5 2 -12 -4 -16 -15 -9 -2 -25 21 -25 22 0 27 38 7 58 -13 13 -12 13 -48 3z"/>
<path d="M1733 456 c-34 -30 -27 -42 13 -21 16 8 40 15 54 15 14 0 38 -7 54
-15 40 -21 47 -9 13 21 -38 33 -96 33 -134 0z"/>
<path d="M2280 411 c-25 -15 -76 -44 -115 -65 -38 -21 -74 -42 -80 -46 -18
-14 -109 -64 -175 -97 -36 -18 -61 -33 -57 -33 18 0 85 34 251 129 97 56 179
101 182 101 3 0 17 9 31 20 36 28 16 23 -37 -9z"/>
<path d="M1716 395 c11 -28 118 -35 150 -9 19 15 19 16 -1 9 -46 -16 -83 -16
-117 -2 -29 12 -36 13 -32 2z"/>
<path d="M1610 381 c0 -25 17 -36 55 -36 23 0 30 -4 30 -20 0 -29 48 -44 70
-22 21 21 49 22 70 1 22 -22 63 -11 67 19 2 17 10 22 33 22 17 0 36 4 43 8 14
10 16 47 2 47 -5 0 -10 -4 -10 -10 0 -5 -11 -10 -24 -10 -37 0 -56 -10 -56
-30 0 -26 -26 -32 -60 -12 -28 16 -32 16 -60 0 -34 -20 -60 -14 -60 12 0 20
-19 30 -56 30 -13 0 -24 5 -24 10 0 6 -4 10 -10 10 -5 0 -10 -9 -10 -19z"/>
<path d="M2133 354 c-35 -19 -63 -37 -63 -40 0 -6 109 53 125 68 17 15 0 8
-62 -28z"/>
</g>
</svg>
