<?xml version="1.0" standalone="no"?>
<!DOCTYPE svg PUBLIC "-//W3C//DTD SVG 20010904//EN"
 "http://www.w3.org/TR/2001/REC-SVG-20010904/DTD/svg10.dtd">
<svg version="1.0" xmlns="http://www.w3.org/2000/svg"
 width="1920.000000pt" height="1920.000000pt" viewBox="0 0 1920.000000 1920.000000"
 preserveAspectRatio="xMidYMid meet">

<g transform="translate(0.000000,1920.000000) scale(0.100000,-0.100000)"
fill="#000000" stroke="none">
<path d="M0 9600 l0 -9600 9600 0 9600 0 0 9600 0 9600 -9600 0 -9600 0 0
-9600z m19168 -2 l-3 -9563 -9562 -3 -9563 -2 0 9565 0 9565 9565 0 9565 0 -2
-9562z"/>
<path d="M9335 14483 c-297 -26 -626 -104 -904 -214 -1060 -422 -1816 -1395
-1961 -2522 -72 -566 3 -1128 222 -1647 51 -121 170 -351 179 -348 4 2 348
342 764 756 l757 754 -53 206 c-28 114 -52 212 -53 219 -2 20 956 973 974 969
8 -2 103 -28 210 -56 107 -29 267 -72 355 -95 88 -24 248 -67 355 -95 107 -28
240 -64 294 -78 l99 -27 29 -100 c15 -55 39 -140 53 -190 27 -99 74 -264 160
-570 31 -110 72 -258 92 -329 l35 -129 -483 -483 c-266 -266 -491 -484 -499
-484 -9 0 -105 23 -213 50 -108 28 -204 50 -212 50 -18 0 -1527 -1500 -1522
-1514 6 -19 338 -179 483 -233 683 -253 1445 -264 2124 -31 492 169 887 421
1254 799 511 526 807 1178 877 1933 15 160 7 506 -16 671 -79 583 -306 1114
-671 1570 -114 143 -340 368 -479 480 -478 382 -1045 616 -1652 680 -124 13
-483 18 -598 8z"/>
<path d="M7816 10061 l-690 -690 45 -57 c55 -73 303 -324 388 -393 l64 -53
191 189 c647 638 1195 1188 1188 1194 -4 3 -89 25 -190 49 -100 24 -186 46
-191 49 -5 3 -30 95 -56 204 -26 108 -50 197 -54 197 -3 0 -316 -310 -695
-689z"/>
<path d="M6555 7109 c-419 -65 -768 -307 -943 -655 -123 -244 -155 -575 -82
-860 62 -243 225 -481 434 -637 86 -63 262 -153 365 -186 155 -50 356 -76 521
-67 356 18 656 143 881 368 282 283 399 674 323 1081 -76 404 -375 744 -784
892 -151 54 -229 66 -450 70 -113 2 -232 0 -265 -6z m445 -474 c312 -97 503
-347 517 -681 11 -254 -67 -452 -238 -607 -67 -62 -183 -126 -270 -151 -145
-42 -325 -39 -474 8 -422 134 -615 638 -407 1066 38 79 60 109 131 181 69 68
103 94 171 127 137 68 210 83 375 78 94 -2 158 -9 195 -21z"/>
<path d="M15065 7109 c-363 -53 -688 -252 -870 -533 -70 -108 -96 -162 -134
-276 -100 -298 -75 -654 65 -932 156 -310 460 -543 819 -626 316 -74 665 -43
943 84 42 19 121 65 176 101 308 205 498 538 518 908 l3 60 -275 3 -276 2 -11
-92 c-37 -308 -242 -545 -535 -619 -113 -29 -281 -29 -393 0 -259 67 -446 254
-517 518 -15 59 -21 109 -21 203 0 151 16 226 80 360 39 81 58 108 133 182 73
72 102 93 181 131 101 49 207 77 288 77 l51 0 0 230 0 230 -82 -1 c-46 -1
-110 -5 -143 -10z"/>
<path d="M4268 7055 c-11 -16 -205 -340 -431 -718 -227 -379 -416 -689 -422
-690 -8 0 -414 658 -782 1270 l-98 163 -227 0 -228 0 0 -1170 0 -1170 255 0
255 0 2 685 3 685 344 -560 343 -561 126 3 125 3 341 568 c187 312 345 567
349 567 5 0 5 -4 2 -10 -3 -5 -3 -318 1 -695 l7 -685 254 0 253 0 0 1043 c0
573 -3 1099 -7 1169 l-6 127 -220 3 -220 3 -19 -30z"/>
<path d="M8449 7058 c8 -22 129 -299 403 -928 125 -285 222 -510 448 -1030 73
-168 139 -317 146 -332 l15 -28 268 0 268 0 21 48 c11 26 66 153 122 282 57
129 117 269 135 310 18 41 97 221 175 400 78 179 180 411 225 515 155 356 327
750 336 768 9 16 -6 17 -264 17 l-274 0 -53 -122 c-29 -68 -70 -161 -91 -208
-20 -47 -90 -206 -154 -355 -65 -148 -151 -346 -192 -440 -41 -93 -108 -249
-150 -345 -41 -96 -78 -178 -82 -183 -4 -4 -158 343 -341 770 -184 428 -345
802 -358 831 l-23 52 -294 0 -295 0 9 -22z"/>
<path d="M11552 5913 l3 -1168 913 -3 912 -2 0 220 0 220 -642 0 -643 0 3 270
3 270 544 0 545 0 0 210 0 210 -543 0 c-299 0 -546 2 -548 4 -2 2 -3 117 -1
255 l3 251 619 0 620 0 0 215 0 215 -895 0 -895 0 2 -1167z"/>
</g>
</svg>
