<svg width="34" height="34" viewBox="0 0 34 34" fill="none" xmlns="http://www.w3.org/2000/svg">
<path d="M8 17C8 12.7574 8 10.636 9.31802 9.31802C10.636 8 12.7574 8 17 8C21.2426 8 23.364 8 24.682 9.31802C26 10.636 26 12.7574 26 17C26 21.2426 26 23.364 24.682 24.682C23.364 26 21.2426 26 17 26C12.7574 26 10.636 26 9.31802 24.682C8 23.364 8 21.2426 8 17Z" stroke="#1C1C1C" stroke-width="1.5"/>
<path d="M12.5 18.7997L14.1172 16.8591C14.758 16.0901 15.0785 15.7056 15.5 15.7056C15.9215 15.7056 16.242 16.0901 16.8828 16.8591L17.1172 17.1403C17.758 17.9094 18.0785 18.2939 18.5 18.2939C18.9215 18.2939 19.242 17.9094 19.8828 17.1403L21.5 15.1997" stroke="#1C1C1C" stroke-width="1.5" stroke-linecap="round"/>
</svg>
