<svg width="40" height="40" viewBox="0 0 40 40" fill="none" xmlns="http://www.w3.org/2000/svg">
<path d="M3.33398 19.9997C3.33398 12.1429 3.33398 8.21456 5.77476 5.77378C8.21554 3.33301 12.1439 3.33301 20.0007 3.33301C27.8574 3.33301 31.7858 3.33301 34.2265 5.77378C36.6673 8.21456 36.6673 12.1429 36.6673 19.9997C36.6673 27.8564 36.6673 31.7848 34.2265 34.2256C31.7858 36.6663 27.8574 36.6663 20.0007 36.6663C12.1439 36.6663 8.21554 36.6663 5.77476 34.2256C3.33398 31.7848 3.33398 27.8564 3.33398 19.9997Z" stroke="#1C1C1C" stroke-width="2"/>
<path d="M11.666 23.3337L14.6608 19.7399C15.8476 18.3158 16.4409 17.6037 17.2216 17.6037C18.0022 17.6037 18.5956 18.3158 19.7823 19.7399L20.2164 20.2608C21.4031 21.6849 21.9965 22.3969 22.7771 22.3969C23.5578 22.3969 24.1511 21.6849 25.3379 20.2608L28.3327 16.667" stroke="#1C1C1C" stroke-width="2" stroke-linecap="round"/>
</svg>
