<svg width="34" height="34" viewBox="0 0 34 34" fill="none" xmlns="http://www.w3.org/2000/svg">
<path d="M8 17C8 12.7574 8 10.636 9.31802 9.31802C10.636 8 12.7574 8 17 8C21.2426 8 23.364 8 24.682 9.31802C26 10.636 26 12.7574 26 17C26 21.2426 26 23.364 24.682 24.682C23.364 26 21.2426 26 17 26C12.7574 26 10.636 26 9.31802 24.682C8 23.364 8 21.2426 8 17Z" stroke="#1C1C1C" stroke-width="1.5"/>
<path d="M12.5001 22.3998V14.2998" stroke="#1C1C1C" stroke-width="1.5" stroke-linecap="round"/>
<path d="M17 22.4001V11.6001" stroke="#1C1C1C" stroke-width="1.5" stroke-linecap="round"/>
<path d="M21.5 22.3999V17.8999" stroke="#1C1C1C" stroke-width="1.5" stroke-linecap="round"/>
</svg>
