<svg width="40" height="40" viewBox="0 0 40 40" fill="none" xmlns="http://www.w3.org/2000/svg">
<path d="M13.334 21.667C14.2545 21.667 15.0007 20.9208 15.0007 20.0003C15.0007 19.0799 14.2545 18.3337 13.334 18.3337C12.4135 18.3337 11.6673 19.0799 11.6673 20.0003C11.6673 20.9208 12.4135 21.667 13.334 21.667Z" fill="#1C1C1C"/>
<path d="M21.6673 20.0003C21.6673 20.9208 20.9211 21.667 20.0007 21.667C19.0802 21.667 18.334 20.9208 18.334 20.0003C18.334 19.0799 19.0802 18.3337 20.0007 18.3337C20.9211 18.3337 21.6673 19.0799 21.6673 20.0003Z" fill="#1C1C1C"/>
<path d="M26.6673 21.667C27.5878 21.667 28.334 20.9208 28.334 20.0003C28.334 19.0799 27.5878 18.3337 26.6673 18.3337C25.7468 18.3337 25.0007 19.0799 25.0007 20.0003C25.0007 20.9208 25.7468 21.667 26.6673 21.667Z" fill="#1C1C1C"/>
<path fill-rule="evenodd" clip-rule="evenodd" d="M16.5733 5.41699C13.5104 5.41697 11.0843 5.41695 9.18561 5.67222C7.23158 5.93493 5.65 6.48846 4.40272 7.73573C3.15545 8.983 2.60192 10.5646 2.33921 12.5186C2.08394 14.4173 2.08396 16.8434 2.08398 19.9063V20.0944C2.08396 23.1573 2.08394 25.5833 2.33921 27.482C2.60192 29.4361 3.15545 31.0177 4.40272 32.2649C5.65 33.5122 7.23158 34.0657 9.18561 34.3284C11.0843 34.5837 13.5103 34.5837 16.5732 34.5837H23.428C26.4909 34.5837 28.917 34.5837 30.8157 34.3284C32.7697 34.0657 34.3513 33.5122 35.5986 32.2649C36.8459 31.0177 37.3994 29.4361 37.6621 27.482C37.9174 25.5834 37.9173 23.1573 37.9173 20.0944V19.9063C37.9173 16.8434 37.9174 14.4173 37.6621 12.5186C37.3994 10.5646 36.8459 8.983 35.5986 7.73573C34.3513 6.48846 32.7697 5.93493 30.8157 5.67222C28.917 5.41695 26.491 5.41697 23.428 5.41699H16.5733ZM6.17049 9.5035C6.87584 8.79815 7.84192 8.37537 9.51873 8.14993C11.2315 7.91965 13.4893 7.91699 16.6673 7.91699H23.334C26.512 7.91699 28.7698 7.91965 30.4826 8.14993C32.1594 8.37537 33.1255 8.79815 33.8308 9.5035C34.5362 10.2088 34.9589 11.1749 35.1844 12.8517C35.4147 14.5645 35.4173 16.8223 35.4173 20.0003C35.4173 23.1784 35.4147 25.4361 35.1844 27.1489C34.9589 28.8257 34.5362 29.7918 33.8308 30.4972C33.1255 31.2025 32.1594 31.6253 30.4826 31.8507C28.7698 32.081 26.512 32.0837 23.334 32.0837H16.6673C13.4893 32.0837 11.2315 32.081 9.51873 31.8507C7.84192 31.6253 6.87584 31.2025 6.17049 30.4972C5.46514 29.7918 5.04236 28.8257 4.81692 27.1489C4.58664 25.4361 4.58399 23.1784 4.58399 20.0003C4.58399 16.8223 4.58664 14.5645 4.81692 12.8517C5.04236 11.1749 5.46514 10.2088 6.17049 9.5035Z" fill="#1C1C1C"/>
</svg>
