<svg width="34" height="34" viewBox="0 0 34 34" fill="none" xmlns="http://www.w3.org/2000/svg">
<path fill-rule="evenodd" clip-rule="evenodd" d="M17 8C12.0294 8 8 12.0294 8 17C8 21.9706 12.0294 26 17 26C21.9706 26 26 21.9706 26 17C26 12.0294 21.9706 8 17 8ZM9.25581 17C9.25581 15.0875 9.94906 13.337 11.098 11.9859L13.7791 14.6671C13.3036 15.3224 13.0233 16.1285 13.0233 17C13.0233 17.8715 13.3036 18.6776 13.7791 19.3329L11.098 22.014C9.94905 20.663 9.25581 18.9125 9.25581 17ZM14.6671 13.7791L11.986 11.098C13.337 9.94906 15.0875 9.25581 17 9.25581C18.9125 9.25581 20.663 9.94906 22.014 11.098L19.3329 13.7791C18.6776 13.3036 17.8715 13.0233 17 13.0233C16.1285 13.0233 15.3224 13.3036 14.6671 13.7791ZM11.9859 22.902C13.337 24.0509 15.0875 24.7442 17 24.7442C18.9125 24.7442 20.663 24.0509 22.0141 22.902L19.3329 20.2209C18.6776 20.6964 17.8715 20.9767 17 20.9767C16.1285 20.9767 15.3224 20.6964 14.6671 20.2209L11.9859 22.902ZM20.2209 19.3329L22.902 22.014C24.0509 20.663 24.7442 18.9125 24.7442 17C24.7442 15.0875 24.0509 13.337 22.902 11.9859L20.2209 14.6671C20.6964 15.3224 20.9767 16.1285 20.9767 17C20.9767 17.8715 20.6964 18.6776 20.2209 19.3329ZM14.2791 17C14.2791 15.4973 15.4973 14.2791 17 14.2791C18.5027 14.2791 19.7209 15.4973 19.7209 17C19.7209 18.5027 18.5027 19.7209 17 19.7209C15.4973 19.7209 14.2791 18.5027 14.2791 17Z" fill="#1C1C1C"/>
</svg>
