<svg width="40" height="40" viewBox="0 0 40 40" fill="none" xmlns="http://www.w3.org/2000/svg">
<path fill-rule="evenodd" clip-rule="evenodd" d="M20.0007 2.08301C10.1055 2.08301 2.08398 10.1046 2.08398 19.9997C2.08398 29.8948 10.1055 37.9163 20.0007 37.9163C29.8958 37.9163 37.9173 29.8948 37.9173 19.9997C37.9173 10.1046 29.8958 2.08301 20.0007 2.08301ZM4.58398 19.9997C4.58398 16.1925 5.96405 12.7076 8.25121 10.018L13.5887 15.3554C12.6421 16.66 12.084 18.2647 12.084 19.9997C12.084 21.7347 12.6421 23.3394 13.5886 24.6439L8.2512 29.9813C5.96405 27.2918 4.58398 23.8069 4.58398 19.9997ZM15.3564 13.5877L10.019 8.25023C12.7086 5.96307 16.1934 4.58301 20.0007 4.58301C23.8079 4.58301 27.2927 5.96307 29.9823 8.25023L24.6449 13.5877C23.3403 12.6411 21.7357 12.083 20.0007 12.083C18.2656 12.083 16.661 12.6411 15.3564 13.5877ZM10.019 31.7491C12.7086 34.0363 16.1934 35.4163 20.0007 35.4163C23.8079 35.4163 27.2927 34.0363 29.9823 31.7491L24.6449 26.4117C23.3403 27.3582 21.7357 27.9163 20.0007 27.9163C18.2656 27.9163 16.661 27.3582 15.3564 26.4117L10.019 31.7491ZM26.4127 24.6439L31.7501 29.9813C34.0373 27.2918 35.4173 23.8069 35.4173 19.9997C35.4173 16.1925 34.0373 12.7076 31.7501 10.018L26.4126 15.3554C27.3592 16.66 27.9173 18.2647 27.9173 19.9997C27.9173 21.7347 27.3592 23.3394 26.4127 24.6439ZM14.584 19.9997C14.584 17.0081 17.0091 14.583 20.0007 14.583C22.9922 14.583 25.4173 17.0081 25.4173 19.9997C25.4173 22.9912 22.9922 25.4163 20.0007 25.4163C17.0091 25.4163 14.584 22.9912 14.584 19.9997Z" fill="#1C1C1C"/>
</svg>
