<svg width="40" height="40" viewBox="0 0 40 40" fill="none" xmlns="http://www.w3.org/2000/svg">
<path fill-rule="evenodd" clip-rule="evenodd" d="M6.76044 33.0423L6.761 33.0428C6.82645 33.1093 6.89234 33.1752 6.95866 33.2405L6.95913 33.241C10.8038 37.0329 17.4193 34.2692 17.4193 28.7803V22.582H11.2211C5.73227 22.582 2.96851 29.1976 6.76044 33.0423ZM17.4193 20.582H11.2211C4.00159 20.582 0.266883 29.3066 5.33649 34.4467C5.40873 34.52 5.48147 34.5927 5.55472 34.6649C10.6948 39.7345 19.4193 35.9998 19.4193 28.7803V22.582V20.582H17.4193Z" fill="#1C1C1C"/>
<path fill-rule="evenodd" clip-rule="evenodd" d="M33.4221 6.41028C30.3447 3.37612 25.0176 5.58641 25.0176 10.0103V14.9824H29.9898C34.415 14.9824 36.6243 9.65289 33.5898 6.57783M25.0176 16.9824H29.9898C36.1381 16.9824 39.3319 9.54851 35.0129 5.17258C34.9512 5.11006 34.889 5.04795 34.8265 4.98625C30.4488 0.669851 23.0176 3.86251 23.0176 10.0103V14.9824V16.9824H25.0176ZM33.4222 6.41039C33.4783 6.46572 33.5341 6.52143 33.5895 6.5775L33.4222 6.41039Z" fill="#1C1C1C"/>
<path fill-rule="evenodd" clip-rule="evenodd" d="M23.0176 22.4424V20.4424H25.0176H28.2789C32.9246 20.4424 35.3475 26.0624 32.0827 29.3675C32.0357 29.415 31.9885 29.4623 31.9409 29.5092C28.634 32.7704 23.0176 30.3481 23.0176 25.7036V22.4424ZM30.6598 27.962C30.6188 28.0035 30.5775 28.0448 30.536 28.0858L30.6598 27.962ZM30.536 28.0858C28.5346 30.0585 25.0176 28.6316 25.0176 25.7036V22.4424H28.2789C31.2089 22.4424 32.6341 25.9626 30.6603 27.9615" fill="#1C1C1C"/>
<path fill-rule="evenodd" clip-rule="evenodd" d="M21.1211 15.6758L21.1211 17.6758L19.1211 17.6758L14.9191 17.6758C9.44285 17.6758 6.58673 11.051 10.4352 7.15495C10.4906 7.09892 10.5463 7.04325 10.6023 6.98795C14.5006 3.14365 21.1211 5.99903 21.1211 11.474L21.1211 15.6758ZM11.8576 8.56092C9.30016 11.1508 11.1585 15.6758 14.9191 15.6758L19.1211 15.6758L19.1211 11.474C19.1211 7.7152 14.5992 5.85532 12.0067 8.41198C11.9569 8.46113 11.9074 8.51062 11.8581 8.56045" fill="#1C1C1C"/>
</svg>
