<svg width="40" height="40" viewBox="0 0 40 40" fill="none" xmlns="http://www.w3.org/2000/svg">
<path d="M20.1515 36.6663C20.7543 36.6663 21.3324 36.4269 21.7586 36.0007C22.1848 35.5745 22.4242 34.9964 22.4242 34.3936V25.583L34.1894 11.7876C34.5283 11.4854 34.8018 11.1172 34.9933 10.7055C35.1848 10.2939 35.2902 9.84745 35.303 9.39361C35.303 5.45422 27.5 3.33301 20.1515 3.33301C12.803 3.33301 5 5.45422 5 9.39361C5.01451 9.84897 5.12137 10.2966 5.31411 10.7095C5.50684 11.1223 5.78143 11.4916 6.12121 11.7951L17.8788 25.583V34.3936C17.8788 34.9964 18.1182 35.5745 18.5445 36.0007C18.9707 36.4269 19.5487 36.6663 20.1515 36.6663ZM20.303 4.99967C28.3409 4.99967 33.3333 7.2421 33.3333 9.39361C33.3096 9.77448 33.1604 10.1368 32.9091 10.4239L32.697 10.6739C31.0152 12.4239 26.5985 13.333 20.1515 13.333C13.7045 13.333 9.18182 12.4239 7.5 10.6815L7.25758 10.4012C7.01389 10.1196 6.87007 9.76538 6.84848 9.39361C6.84848 7.2421 12.2652 4.99967 20.303 4.99967ZM9.93939 13.9391C13.2406 14.9867 16.6884 15.4982 20.1515 15.4542C23.6147 15.4982 27.0624 14.9867 30.3636 13.9391L21.0909 24.8103C20.9736 24.9475 20.9091 25.1221 20.9091 25.3027V34.3936C20.9091 34.5945 20.8293 34.7872 20.6872 34.9293C20.5451 35.0714 20.3524 35.1512 20.1515 35.1512C19.9506 35.1512 19.7579 35.0714 19.6158 34.9293C19.4738 34.7872 19.3939 34.5945 19.3939 34.3936V25.3027C19.394 25.1221 19.3295 24.9475 19.2121 24.8103L9.93939 13.9391Z" fill="#1C1C1C"/>
</svg>
