<svg width="34" height="34" viewBox="0 0 34 34" fill="none" xmlns="http://www.w3.org/2000/svg">
<path d="M8 17C8 12.7574 8 10.636 9.31802 9.31802C10.636 8 12.7574 8 17 8C21.2426 8 23.364 8 24.682 9.31802C26 10.636 26 12.7574 26 17C26 21.2426 26 23.364 24.682 24.682C23.364 26 21.2426 26 17 26C12.7574 26 10.636 26 9.31802 24.682C8 23.364 8 21.2426 8 17Z" stroke="#1C1C1C" stroke-width="1.5"/>
<path d="M12.95 12.5L15.65 12.5" stroke="#1C1C1C" stroke-width="1.5" stroke-linecap="round"/>
<path d="M12.9501 17H18.3501" stroke="#1C1C1C" stroke-width="1.5" stroke-linecap="round"/>
<path d="M12.95 21.5H21.05" stroke="#1C1C1C" stroke-width="1.5" stroke-linecap="round"/>
</svg>
