<svg width="40" height="40" viewBox="0 0 40 40" fill="none" xmlns="http://www.w3.org/2000/svg">
<path d="M3 4H36.3333" stroke="#1C1C1C" stroke-width="2" stroke-linecap="round"/>
<path d="M14.666 18.1673L16.8208 16.0125C17.3764 15.4569 17.6542 15.1792 17.9993 15.1792C18.3445 15.1792 18.6223 15.4569 19.1779 16.0125L20.1542 16.9888C20.7097 17.5444 20.9875 17.8221 21.3327 17.8221C21.6779 17.8221 21.9556 17.5444 22.5112 16.9888L24.666 14.834" stroke="#1C1C1C" stroke-width="2" stroke-linecap="round"/>
<path d="M19.666 35.667L19.666 29.0003" stroke="#1C1C1C" stroke-width="2" stroke-linecap="round"/>
<path d="M33.0007 4V18.1667C33.0007 23.2735 33.0007 25.827 31.327 27.4135C29.6533 29 26.9596 29 21.5721 29H17.7626C12.3751 29 9.68134 29 8.00766 27.4135C6.33398 25.827 6.33398 23.2735 6.33398 18.1667V4" stroke="#1C1C1C" stroke-width="2"/>
</svg>
