<svg width="40" height="40" viewBox="0 0 40 40" fill="none" xmlns="http://www.w3.org/2000/svg">
<path d="M36.6673 36.6663H20.0007C12.1439 36.6663 8.21554 36.6663 5.77476 34.2256C3.33398 31.7848 3.33398 27.8564 3.33398 19.9997V3.33301" stroke="#1C1C1C" stroke-width="2" stroke-linecap="round"/>
<path d="M31.6669 11.667L26.4702 18.211C25.6742 19.2134 25.2762 19.7146 24.8193 19.9589C24.1167 20.3344 23.2772 20.3527 22.559 20.008C22.0919 19.7839 21.6725 19.3005 20.8336 18.3336C19.9947 17.3668 19.5753 16.8834 19.1082 16.6592C18.39 16.3146 17.5505 16.3328 16.8479 16.7084C16.391 16.9527 15.993 17.4538 15.197 18.4562L10 25.0003" stroke="#1C1C1C" stroke-width="2" stroke-linecap="round"/>
</svg>
