<svg width="34" height="34" viewBox="0 0 34 34" fill="none" xmlns="http://www.w3.org/2000/svg">
<path d="M26 26H17C12.7574 26 10.636 26 9.31802 24.682C8 23.364 8 21.2426 8 17V8" stroke="#1C1C1C" stroke-width="1.5" stroke-linecap="round"/>
<path d="M26 9L22.6422 15.3804C22.1278 16.3577 21.8707 16.8464 21.5754 17.0846C21.1215 17.4508 20.579 17.4686 20.1149 17.1325C19.8131 16.914 19.5421 16.4426 19.0001 15.5C18.4581 14.5573 18.187 14.086 17.8852 13.8674C17.4211 13.5314 16.8787 13.5492 16.4248 13.9154C16.1295 14.1535 15.8724 14.6422 15.358 15.6195L12 22" stroke="#1C1C1C" stroke-width="1.5" stroke-linecap="round"/>
</svg>
