<svg width="40" height="40" viewBox="0 0 40 40" fill="none" xmlns="http://www.w3.org/2000/svg">
<path d="M4.33398 19.9997C4.33398 16.043 4.33611 13.1762 4.63016 10.989C4.92035 8.8306 5.47825 7.48451 6.48187 6.48089C7.48549 5.47727 8.83157 4.91938 10.99 4.62919C13.1771 4.33513 16.044 4.33301 20.0007 4.33301C23.9573 4.33301 26.8242 4.33513 29.0113 4.62919C31.1697 4.91938 32.5158 5.47727 33.5194 6.48089C34.5231 7.48451 35.0809 8.8306 35.3711 10.989C35.6652 13.1762 35.6673 16.043 35.6673 19.9997C35.6673 23.9563 35.6652 26.8232 35.3711 29.0104C35.0809 31.1688 34.5231 32.5148 33.5194 33.5185C32.5158 34.5221 31.1697 35.08 29.0113 35.3702C26.8242 35.6642 23.9573 35.6663 20.0007 35.6663C16.044 35.6663 13.1771 35.6642 10.99 35.3702C8.83157 35.08 7.48549 34.5221 6.48187 33.5185C5.47825 32.5148 4.92035 31.1688 4.63016 29.0104C4.33611 26.8232 4.33398 23.9563 4.33398 19.9997Z" stroke="#1C1C1C" stroke-width="2"/>
<path d="M5 16.667H35" stroke="#1C1C1C" stroke-width="2" stroke-linecap="round"/>
<path d="M5 26.667H35" stroke="#1C1C1C" stroke-width="2" stroke-linecap="round"/>
<path d="M11.666 16.667L11.666 35.0003" stroke="#1C1C1C" stroke-width="2" stroke-linecap="round"/>
<path d="M20 16.667L20 35.0003" stroke="#1C1C1C" stroke-width="2" stroke-linecap="round"/>
<path d="M28.334 16.667L28.334 35.0003" stroke="#1C1C1C" stroke-width="2" stroke-linecap="round"/>
</svg>
