<svg width="40" height="40" viewBox="0 0 40 40" fill="none" xmlns="http://www.w3.org/2000/svg">
<path d="M20.0007 36.6663C12.1439 36.6663 8.21554 36.6663 5.77476 34.2256C3.33398 31.7848 3.33398 27.8564 3.33398 19.9997C3.33398 12.1429 3.33398 8.21456 5.77476 5.77379C8.21554 3.33301 12.1439 3.33301 20.0007 3.33301C27.8574 3.33301 31.7858 3.33301 34.2265 5.77378C36.6673 8.21456 36.6673 12.1429 36.6673 19.9997C36.6673 27.8564 36.6673 31.7848 34.2265 34.2256C31.7858 36.6663 27.8574 36.6663 20.0007 36.6663Z" stroke="#1C1C1C" stroke-width="2"/>
<path d="M5.83398 34.1663L20.0007 19.9997M34.1673 5.83301L20.0007 19.9997M34.1673 34.1663L20.0007 19.9997" stroke="#1C1C1C" stroke-width="2" stroke-linecap="round"/>
</svg>
