<svg width="40" height="40" viewBox="0 0 40 40" fill="none" xmlns="http://www.w3.org/2000/svg">
<path d="M33.0757 21.0763C32.8834 17.0117 30.9667 13.2617 27.9417 11.0324L29.7405 7.50666L29.2262 7.16991C26.9709 5.69294 24.3989 4.91236 21.7864 4.91236C19.3739 4.91236 16.9989 5.58652 14.8721 6.85202L13.0762 3.33301L12.5608 3.6711C6.8691 7.39688 3.33398 14.3245 3.33398 21.7498V22.4233H14.0739C14.2554 25.0519 15.4899 27.4684 17.4179 28.9649L15.6209 32.4866L16.1352 32.8234C17.856 33.9501 19.8108 34.5462 21.7864 34.5462C23.5637 34.5462 25.3233 34.0599 26.9126 33.1413L28.7114 36.6663L29.2268 36.3282C33.8167 33.3251 36.6673 27.7385 36.6673 21.7498V21.0763H33.0757ZM31.8876 21.0763H22.8173L27.3477 12.1969C30.0078 14.1844 31.6983 17.4906 31.8876 21.0763ZM15.4637 8.01178C17.4096 6.8628 19.5828 6.25935 21.7864 6.25935C23.9899 6.25935 26.1637 6.86347 28.109 8.01178L21.7864 20.4028L17.8739 12.735L15.4637 8.01178ZM12.6471 5.18445L20.7554 21.0763H14.0483H4.53517C4.73458 14.61 7.78994 8.62399 12.6471 5.18445ZM15.2661 22.4233H20.7554L18.7203 26.4117L18.0137 27.7964C16.4507 26.545 15.4423 24.5724 15.2661 22.4233ZM26.3185 31.9775C23.503 33.5797 20.0703 33.579 17.2542 31.9781L18.4346 29.6647L19.2251 28.1163L21.787 23.0967L25.4453 30.2654L26.3185 31.9775ZM29.1399 34.8129L22.8179 22.4233H33.0959H35.4643C35.2679 27.4516 32.8965 32.0987 29.1399 34.8129Z" fill="#1C1C1C" stroke="#1C1C1C" stroke-linejoin="round"/>
</svg>
