<svg width="34" height="34" viewBox="0 0 34 34" fill="none" xmlns="http://www.w3.org/2000/svg">
<path d="M24.0605 17.5814C23.9567 15.3865 22.9217 13.3615 21.2882 12.1577L22.2595 10.2538L21.9818 10.0719C20.7639 9.27436 19.375 8.85285 17.9643 8.85285C16.6615 8.85285 15.379 9.2169 14.2306 9.90027L13.2608 8L12.9825 8.18257C9.90896 10.1945 8 13.9354 8 17.945V18.3087H13.7995C13.8976 19.7282 14.5642 21.0331 15.6053 21.8412L14.6349 23.743L14.9126 23.9248C15.8419 24.5332 16.8975 24.8551 17.9643 24.8551C18.9241 24.8551 19.8742 24.5925 20.7324 24.0965L21.7038 26L21.9821 25.8174C24.4607 24.1957 26 21.179 26 17.945V17.5814H24.0605ZM23.4189 17.5814H18.521L20.9674 12.7865C22.4039 13.8597 23.3167 15.6451 23.4189 17.5814ZM14.5501 10.5265C15.6008 9.90609 16.7744 9.58022 17.9643 9.58022C19.1542 9.58022 20.3281 9.90645 21.3785 10.5265L17.9643 17.2177L15.8515 13.0771L14.5501 10.5265ZM13.0291 8.99978L17.4076 17.5814H13.7857H8.64864C8.75632 14.0896 10.4062 10.8571 13.0291 8.99978ZM14.4434 18.3087H17.4076L16.3086 20.4625L15.9271 21.2102C15.083 20.5345 14.5385 19.4693 14.4434 18.3087ZM20.4116 23.468C18.8913 24.3332 17.0376 24.3329 15.5169 23.4684L16.1543 22.2191L16.5812 21.383L17.9646 18.6724L19.9401 22.5435L20.4116 23.468ZM21.9352 24.9991L18.5213 18.3087H24.0714H25.3504C25.2443 21.024 23.9638 23.5335 21.9352 24.9991Z" fill="#1C1C1C" stroke="#1C1C1C" stroke-width="0.5" stroke-linejoin="round"/>
</svg>
