<svg width="40" height="40" viewBox="0 0 40 40" fill="none" xmlns="http://www.w3.org/2000/svg">
<path fill-rule="evenodd" clip-rule="evenodd" d="M33.1388 20.0896C32.817 20.089 32.5026 19.9931 32.2354 19.8141C31.9681 19.6351 31.7599 19.3809 31.6372 19.0837C31.5145 18.7865 31.4827 18.4596 31.5458 18.1443C31.609 17.8291 31.7642 17.5396 31.992 17.3125C32.2198 17.0854 32.5098 16.9308 32.8255 16.8683C33.1411 16.8059 33.4682 16.8383 33.7654 16.9615C34.0627 17.0847 34.3166 17.2932 34.4953 17.5606C34.674 17.828 34.7693 18.1423 34.7692 18.4638C34.7691 18.6774 34.7268 18.889 34.6449 19.0863C34.5629 19.2836 34.4429 19.4629 34.2916 19.6138C34.1403 19.7648 33.9607 19.8845 33.7631 19.9661C33.5655 20.0478 33.3527 20.0897 33.1388 20.0896ZM21.4706 32.0441C24.064 31.4773 26.4404 30.1797 28.3182 28.3049C30.1961 26.4301 31.4967 24.0568 32.066 21.4662C31.4462 21.245 30.91 20.8378 30.5309 20.3003C30.1518 19.7628 29.9483 19.1214 29.9483 18.4638C29.9483 17.8063 30.1518 17.1648 30.5309 16.6273C30.91 16.0898 31.4462 15.6826 32.066 15.4615C31.527 13.0271 30.3428 10.7823 28.6374 8.9622C26.9321 7.14209 24.7682 5.81361 22.3725 5.11589C19.9769 4.41817 17.4375 4.37689 15.0204 4.99636C12.6032 5.61583 10.3973 6.87327 8.63351 8.63698C6.86975 10.4007 5.61308 12.6058 4.99511 15.0213C4.37714 17.4369 4.42061 19.974 5.12095 22.367C5.82129 24.7601 7.15275 26.9209 8.97589 28.6233C10.799 30.3256 13.0468 31.5069 15.4837 32.0434C15.7095 31.4319 16.1176 30.9042 16.6528 30.5316C17.1881 30.1589 17.8248 29.9591 18.4772 29.9591C19.1295 29.9591 19.7662 30.1589 20.3015 30.5316C20.8367 30.9042 21.2448 31.4326 21.4706 32.0441ZM18.4768 34.7744C18.1549 34.7744 17.8402 34.679 17.5726 34.5003C17.3049 34.3216 17.0963 34.0677 16.9732 33.7705C16.85 33.4734 16.8177 33.1464 16.8805 32.831C16.9433 32.5156 17.0984 32.2258 17.326 31.9984C17.5536 31.771 17.8436 31.6161 18.1593 31.5534C18.475 31.4906 18.8022 31.5228 19.0996 31.6459C19.397 31.769 19.6512 31.9774 19.83 32.2448C20.0089 32.5122 20.1043 32.8266 20.1043 33.1482C20.1039 33.5794 19.9323 33.9928 19.6272 34.2977C19.3221 34.6025 18.9083 34.774 18.4768 34.7744ZM36.33 18.4631C36.3291 17.7033 36.0571 16.9688 35.5629 16.3914C35.0687 15.814 34.3847 15.4315 33.6336 15.3127C33.0645 12.5825 31.7672 10.0569 29.879 8.00321C27.9908 5.94948 25.582 4.44406 22.9075 3.64631C20.233 2.84856 17.3923 2.78817 14.6863 3.47152C11.9802 4.15487 9.50947 5.55654 7.53552 7.52816C5.56158 9.49977 4.15791 11.968 3.47312 14.6714C2.78832 17.3749 2.84788 20.2131 3.64548 22.8855C4.44309 25.558 5.94906 27.9652 8.00398 29.8524C10.0589 31.7396 12.5863 33.0366 15.3186 33.606C15.4303 34.363 15.8106 35.0547 16.3903 35.5548C16.9699 36.0549 17.7102 36.33 18.4761 36.33C19.2419 36.33 19.9822 36.0549 20.5619 35.5548C21.1415 35.0547 21.5219 34.363 21.6335 33.606C24.5842 32.9898 27.2909 31.5271 29.422 29.3971C31.5531 27.267 33.0161 24.5622 33.6318 21.6139C34.3828 21.4949 35.0668 21.1124 35.561 20.535C36.0552 19.9576 36.3272 19.2232 36.3282 18.4635L36.33 18.4631ZM18.4768 22.8245C17.8145 22.8259 17.1606 22.6761 16.565 22.3866C15.9694 22.097 15.4479 21.6754 15.0402 21.1539C15.4941 20.8666 15.8679 20.4694 16.1269 19.9991C16.386 19.5287 16.5218 19.0006 16.5218 18.4638C16.5218 17.927 16.386 17.3989 16.1269 16.9286C15.8679 16.4582 15.4941 16.061 15.0402 15.7737C15.4966 15.1915 16.0937 14.7348 16.7754 14.4466C17.4571 14.1584 18.2009 14.048 18.937 14.126C19.673 14.204 20.3772 14.4677 20.9832 14.8924C21.5892 15.317 22.0771 15.8887 22.4012 16.5536C22.7253 17.2185 22.8748 17.9548 22.8358 18.6933C22.7967 19.4318 22.5703 20.1483 22.1779 20.7753C21.7855 21.4024 21.2399 21.9195 20.5925 22.2779C19.945 22.6364 19.217 22.8245 18.4768 22.8245ZM11.703 18.4638C11.7029 18.1422 11.7983 17.8277 11.9771 17.5603C12.1559 17.2928 12.4101 17.0843 12.7075 16.9612C13.0049 16.8381 13.3322 16.8058 13.6479 16.8686C13.9637 16.9313 14.2537 17.0862 14.4813 17.3136C14.709 17.5411 14.864 17.8308 14.9268 18.1463C14.9896 18.4618 14.9573 18.7888 14.8341 19.0859C14.7109 19.383 14.5022 19.637 14.2345 19.8157C13.9668 19.9943 13.6521 20.0896 13.3302 20.0896C12.8988 20.0891 12.4852 19.9176 12.1801 19.6129C11.8751 19.3081 11.7035 18.8948 11.703 18.4638ZM18.4768 12.5401C19.5064 12.5402 20.5183 12.8082 21.4128 13.3177C22.3073 13.8273 23.0535 14.5608 23.578 15.446C24.1026 16.3312 24.3874 17.3377 24.4043 18.3663C24.4213 19.3949 24.1698 20.4102 23.6747 21.3122C23.1796 22.2142 22.4579 22.9718 21.5807 23.5105C20.7035 24.0492 19.701 24.3503 18.672 24.3843C17.6429 24.4182 16.6227 24.1838 15.7118 23.7041C14.801 23.2245 14.0308 22.516 13.4773 21.6486C13.4285 21.6508 13.3797 21.6526 13.3302 21.6526C12.4837 21.6526 11.6719 21.3166 11.0734 20.7186C10.4749 20.1206 10.1386 19.3095 10.1386 18.4638C10.1386 17.6181 10.4749 16.807 11.0734 16.209C11.6719 15.611 12.4837 15.275 13.3302 15.275C13.3797 15.275 13.4285 15.275 13.4773 15.279C14.0114 14.4379 14.75 13.7456 15.6242 13.2667C16.4985 12.7878 17.4798 12.5378 18.4768 12.5401ZM18.4768 27.5967C16.3099 27.5966 14.2134 26.8275 12.5614 25.4264C10.9094 24.0254 9.80928 22.0835 9.45725 19.9472C9.10521 17.811 9.52417 15.6192 10.6394 13.7629C11.7546 11.9066 13.4936 10.5065 15.5461 9.81239C15.7926 10.3847 16.2015 10.8723 16.7224 11.215C17.2433 11.5576 17.8532 11.7402 18.4768 11.7402C19.1004 11.7402 19.7103 11.5576 20.2312 11.215C20.7521 10.8723 21.161 10.3847 21.4075 9.81239C23.46 10.5065 25.199 11.9066 26.3142 13.7629C27.4294 15.6192 27.8484 17.811 27.4963 19.9472C27.1443 22.0835 26.0442 24.0254 24.3922 25.4264C22.7402 26.8275 20.6437 27.5966 18.4768 27.5967ZM18.4768 6.92547C18.7987 6.9254 19.1134 7.02072 19.3811 7.19937C19.6488 7.37803 19.8575 7.63199 19.9807 7.92913C20.1039 8.22628 20.1362 8.55326 20.0734 8.86873C20.0106 9.1842 19.8556 9.47398 19.628 9.70141C19.4004 9.92885 19.1103 10.0837 18.7946 10.1465C18.4788 10.2092 18.1516 10.177 17.8542 10.0538C17.5568 9.93072 17.3026 9.72224 17.1238 9.45477C16.945 9.18731 16.8496 8.87287 16.8496 8.55122C16.8501 8.12019 17.0217 7.70695 17.3267 7.40217C17.6318 7.09738 18.0454 6.92595 18.4768 6.92547ZM21.654 8.25188C23.7105 8.89477 25.5269 10.139 26.8684 11.8239C28.3741 13.7092 29.1901 16.0518 29.1813 18.4638C29.1649 21.2896 28.0299 23.994 26.0242 25.9864C24.0186 27.9787 21.3052 29.0971 18.477 29.0971C15.6487 29.0971 12.9354 27.9787 10.9297 25.9864C8.92406 23.994 7.78907 21.2896 7.7727 18.4638C7.76364 16.0517 8.57979 13.709 10.0859 11.8239C11.4269 10.1379 13.2434 8.89277 15.3003 8.24938C15.3756 7.45962 15.7428 6.72624 16.3302 6.19251C16.9176 5.65878 17.6831 5.36302 18.4772 5.36302C19.2712 5.36302 20.0367 5.65878 20.6241 6.19251C21.2116 6.72624 21.5788 7.45962 21.654 8.24938V8.25188Z" fill="#1C1C1C"/>
</svg>
