<svg width="40" height="40" viewBox="0 0 40 40" fill="none" xmlns="http://www.w3.org/2000/svg">
<path d="M20.0007 3.33301C29.2054 3.33301 36.6673 10.7949 36.6673 19.9997C36.6673 29.2044 29.2054 36.6663 20.0007 36.6663C10.7959 36.6663 3.33398 29.2044 3.33398 19.9997C3.33398 15.3374 5.24838 11.1222 8.33398 8.09729" stroke="#1C1C1C" stroke-width="2" stroke-linecap="round"/>
<path d="M8.33398 19.9997C8.33398 26.443 13.5573 31.6663 20.0007 31.6663C26.444 31.6663 31.6673 26.443 31.6673 19.9997C31.6673 13.5564 26.444 8.33301 20.0007 8.33301" stroke="#1C1C1C" stroke-width="2" stroke-linecap="round"/>
<path d="M20 26.6663C23.6819 26.6663 26.6667 23.6816 26.6667 19.9997C26.6667 16.3178 23.6819 13.333 20 13.333" stroke="#1C1C1C" stroke-width="2" stroke-linecap="round"/>
</svg>
