<svg width="40" height="40" viewBox="0 0 40 40" fill="none" xmlns="http://www.w3.org/2000/svg">
<path d="M33.5324 30.3975C32.0109 30.3975 30.7361 31.0556 30.4583 32.4997H7.50065V9.54343C8.94469 9.26439 9.60381 7.99321 9.60381 6.46803C9.60381 4.73894 8.19674 3.33301 6.4689 3.33301C4.74106 3.33301 3.33398 4.73894 3.33398 6.46803C3.33398 7.99202 4.42864 9.2632 5.87268 9.54343V33.5313C5.87268 33.8604 6.14098 34.1276 6.4689 34.1276H30.4583C30.7361 35.5716 32.0109 36.6663 33.5324 36.6663C35.2591 36.6663 36.6673 35.2592 36.6673 33.5313C36.6673 31.8034 35.2591 30.3975 33.5324 30.3975ZM4.52642 6.46922C4.52642 5.39838 5.3969 4.52668 6.4689 4.52668C7.5409 4.52668 8.41137 5.39719 8.41137 6.46922C8.41137 7.53888 7.5409 8.41177 6.4689 8.41177C5.3969 8.41177 4.52642 7.54007 4.52642 6.46922ZM33.5324 35.4774C32.4628 35.4774 31.5899 34.6057 31.5899 33.5349C31.5899 32.464 32.4592 31.5912 33.5324 31.5912C34.6056 31.5912 35.4749 32.4629 35.4749 33.5349C35.4749 34.6045 34.602 35.4774 33.5324 35.4774Z" fill="#1C1C1C"/>
<path d="M4.52642 6.46922C4.52642 5.39838 5.3969 4.52668 6.4689 4.52668C7.5409 4.52668 8.41137 5.39719 8.41137 6.46922C8.41137 7.53888 7.5409 8.41177 6.4689 8.41177C5.3969 8.41177 4.52642 7.54007 4.52642 6.46922Z" fill="#1C1C1C"/>
<path d="M33.5324 35.4774C32.4628 35.4774 31.5899 34.6057 31.5899 33.5349C31.5899 32.464 32.4592 31.5912 33.5324 31.5912C34.6056 31.5912 35.4749 32.4629 35.4749 33.5349C35.4749 34.6045 34.602 35.4774 33.5324 35.4774Z" fill="#1C1C1C"/>
<path d="M14.4986 17.3233C15.6171 17.3233 16.5234 16.4146 16.5234 15.2985C16.5234 14.1799 15.6147 13.2725 14.4986 13.2725C13.3825 13.2725 12.4727 14.1811 12.4727 15.2985C12.4727 16.4146 13.3837 17.3233 14.4986 17.3233ZM14.4986 14.4626C14.9601 14.4626 15.3309 14.8358 15.3309 15.2961C15.3309 15.7564 14.9577 16.1284 14.4986 16.1284C14.0395 16.1284 13.6651 15.7552 13.6651 15.2961C13.6651 14.8358 14.0383 14.4626 14.4986 14.4626Z" fill="#1C1C1C"/>
<path d="M23.624 16.5745C24.7413 16.5745 25.65 15.6646 25.65 14.5473C25.65 13.4299 24.739 12.5225 23.624 12.5225C22.5055 12.5225 21.5957 13.4311 21.5957 14.5473C21.5957 15.6646 22.5079 16.5745 23.624 16.5745ZM23.624 13.7149C24.0843 13.7149 24.4575 14.0882 24.4575 14.5473C24.4575 15.0088 24.0843 15.3808 23.624 15.3808C23.1626 15.3808 22.7881 15.0076 22.7881 14.5461C22.7881 14.087 23.1649 13.7149 23.624 13.7149Z" fill="#1C1C1C"/>
<path d="M19.7427 23.6526C20.8589 23.6526 21.7675 22.7428 21.7675 21.6266C21.7675 20.5081 20.8565 19.6006 19.7427 19.6006C18.6242 19.6006 17.7168 20.5093 17.7168 21.6266C17.7168 22.7428 18.6242 23.6526 19.7427 23.6526ZM19.7427 20.7919C20.2018 20.7919 20.5751 21.1651 20.5751 21.6254C20.5751 22.0857 20.2018 22.459 19.7427 22.459C19.2801 22.459 18.9092 22.0857 18.9092 21.6254C18.9092 21.1651 19.2801 20.7919 19.7427 20.7919Z" fill="#1C1C1C"/>
<path d="M30.8424 21.6106C31.9609 21.6106 32.8671 20.7008 32.8671 19.5846C32.8671 18.4661 31.9585 17.5586 30.8424 17.5586C29.7262 17.5586 28.8164 18.4673 28.8164 19.5846C28.8164 20.7008 29.725 21.6106 30.8424 21.6106ZM30.8424 18.7499C31.3038 18.7499 31.6747 19.1231 31.6747 19.5834C31.6747 20.0437 31.3014 20.417 30.8424 20.417C30.3833 20.417 30.0088 20.0437 30.0088 19.5834C30.0088 19.1231 30.3821 18.7499 30.8424 18.7499Z" fill="#1C1C1C"/>
<path d="M32.6826 13.3763C33.7999 13.3763 34.7074 12.4676 34.7074 11.3502C34.7074 10.2329 33.7964 9.32422 32.6826 9.32422C31.5641 9.32422 30.6543 10.2341 30.6543 11.3502C30.6543 12.4688 31.5653 13.3763 32.6826 13.3763ZM32.6826 10.5155C33.1417 10.5155 33.515 10.8888 33.515 11.349C33.515 11.8093 33.1417 12.1826 32.6826 12.1826C32.22 12.1826 31.8467 11.8093 31.8467 11.349C31.8467 10.8888 32.22 10.5155 32.6826 10.5155Z" fill="#1C1C1C"/>
</svg>
