<svg width="40" height="40" viewBox="0 0 40 40" fill="none" xmlns="http://www.w3.org/2000/svg">
<path fill-rule="evenodd" clip-rule="evenodd" d="M19.905 2.08301H20.0963C23.9436 2.08299 26.9587 2.08297 29.3111 2.39925C31.719 2.72299 33.6191 3.39855 35.1104 4.8899C36.6018 6.38125 37.2773 8.28129 37.6011 10.6892C37.9174 13.0417 37.9173 16.0567 37.9173 19.9041V24.9997C37.9173 32.1334 32.1343 37.9163 25.0007 37.9163H19.905C16.0577 37.9164 13.0426 37.9164 10.6902 37.6001C8.28227 37.2764 6.38223 36.6008 4.89088 35.1094C3.39953 33.6181 2.72396 31.7181 2.40023 29.3102C2.08395 26.9577 2.08396 23.9426 2.08398 20.0953V19.904C2.08396 16.0567 2.08395 13.0417 2.40023 10.6892C2.72396 8.28129 3.39953 6.38125 4.89088 4.8899C6.38223 3.39855 8.28227 2.72299 10.6902 2.39925C13.0426 2.08297 16.0577 2.08299 19.905 2.08301ZM11.0233 4.87696C8.89261 5.16342 7.60807 5.70824 6.65865 6.65767C5.70922 7.6071 5.1644 8.89163 4.87794 11.0223C4.58664 13.1889 4.58399 16.036 4.58399 19.9997C4.58399 23.9634 4.58664 26.8104 4.87794 28.977C5.1644 31.1077 5.70922 32.3923 6.65865 33.3417C7.60807 34.2911 8.89261 34.8359 11.0233 35.1224C13.1899 35.4137 16.0369 35.4163 20.0007 35.4163H23.7513C23.7569 33.1392 23.8065 31.6434 24.2197 30.3716C25.1677 27.4541 27.455 25.1667 30.3726 24.2187C31.6444 23.8055 33.1402 23.7559 35.4173 23.7503V19.9997C35.4173 16.036 35.4147 13.1889 35.1234 11.0223C34.8369 8.89163 34.2921 7.6071 33.3427 6.65767C32.3932 5.70824 31.1087 5.16342 28.978 4.87696C26.8114 4.58566 23.9644 4.58301 20.0007 4.58301C16.0369 4.58301 13.1899 4.58566 11.0233 4.87696ZM35.3428 26.2518C33.081 26.2615 32.0108 26.3151 31.1451 26.5964C28.9887 27.297 27.298 28.9877 26.5973 31.1441C26.3161 32.0098 26.2625 33.08 26.2527 35.3419C31.0048 34.7726 34.7735 31.0039 35.3428 26.2518Z" fill="#1C1C1C"/>
</svg>
