<svg width="40" height="40" viewBox="0 0 40 40" fill="none" xmlns="http://www.w3.org/2000/svg">
<path fill-rule="evenodd" clip-rule="evenodd" d="M19.905 2.08301H20.0963C23.9436 2.08299 26.9587 2.08297 29.3111 2.39925C31.719 2.72299 33.6191 3.39855 35.1104 4.8899C36.6018 6.38125 37.2773 8.28129 37.6011 10.6892C37.9174 13.0417 37.9173 16.0567 37.9173 19.9041V20.0953C37.9173 23.9426 37.9174 26.9577 37.6011 29.3102C37.2773 31.7181 36.6018 33.6181 35.1104 35.1094C33.6191 36.6008 31.719 37.2764 29.3111 37.6001C26.9587 37.9164 23.9436 37.9164 20.0963 37.9163H19.905C16.0577 37.9164 13.0426 37.9164 10.6902 37.6001C8.28227 37.2764 6.38223 36.6008 4.89088 35.1094C3.39953 33.6181 2.72396 31.7181 2.40023 29.3102C2.08395 26.9577 2.08396 23.9426 2.08398 20.0953V19.904C2.08396 16.0567 2.08395 13.0417 2.40023 10.6892C2.72396 8.28129 3.39953 6.38125 4.89088 4.8899C6.38223 3.39855 8.28227 2.72299 10.6902 2.39925C13.0426 2.08297 16.0577 2.08299 19.905 2.08301ZM11.0233 4.87696C8.89261 5.16342 7.60807 5.70824 6.65865 6.65767C5.70922 7.6071 5.1644 8.89163 4.87794 11.0223C4.58664 13.1889 4.58399 16.036 4.58399 19.9997C4.58399 23.9634 4.58664 26.8104 4.87794 28.977C5.1644 31.1077 5.70922 32.3923 6.65865 33.3417C7.60807 34.2911 8.89261 34.8359 11.0233 35.1224C13.1899 35.4137 16.0369 35.4163 20.0007 35.4163C23.9644 35.4163 26.8114 35.4137 28.978 35.1224C31.1087 34.8359 32.3932 34.2911 33.3427 33.3417C34.2921 32.3923 34.8369 31.1077 35.1234 28.977C35.4147 26.8104 35.4173 23.9634 35.4173 19.9997C35.4173 16.036 35.4147 13.1889 35.1234 11.0223C34.8369 8.89163 34.2921 7.6071 33.3427 6.65767C32.3932 5.70824 31.1087 5.16342 28.978 4.87696C26.8114 4.58566 23.9644 4.58301 20.0007 4.58301C16.0369 4.58301 13.1899 4.58566 11.0233 4.87696ZM17.5294 10.7612C18.0293 11.2373 18.0486 12.0285 17.5725 12.5284L12.8106 17.5284C12.5747 17.7761 12.2475 17.9163 11.9054 17.9163C11.5633 17.9163 11.2362 17.7761 11.0002 17.5284L9.09548 15.5284C8.61937 15.0285 8.63867 14.2373 9.13858 13.7612C9.6385 13.2851 10.4297 13.3044 10.9058 13.8043L11.9054 14.8538L15.7621 10.8043C16.2383 10.3044 17.0295 10.2851 17.5294 10.7612ZM20.4173 14.9997C20.4173 14.3093 20.977 13.7497 21.6673 13.7497H30.0007C30.691 13.7497 31.2507 14.3093 31.2507 14.9997C31.2507 15.69 30.691 16.2497 30.0007 16.2497H21.6673C20.977 16.2497 20.4173 15.69 20.4173 14.9997ZM17.5294 22.4278C18.0293 22.9039 18.0486 23.6952 17.5725 24.1951L12.8106 29.1951C12.5747 29.4428 12.2475 29.583 11.9054 29.583C11.5633 29.583 11.2362 29.4428 11.0002 29.1951L9.09548 27.1951C8.61937 26.6952 8.63867 25.9039 9.13858 25.4278C9.6385 24.9517 10.4297 24.971 10.9058 25.4709L11.9054 26.5205L15.7621 22.4709C16.2383 21.971 17.0295 21.9517 17.5294 22.4278ZM20.4173 26.6663C20.4173 25.976 20.977 25.4163 21.6673 25.4163H30.0007C30.691 25.4163 31.2507 25.976 31.2507 26.6663C31.2507 27.3567 30.691 27.9163 30.0007 27.9163H21.6673C20.977 27.9163 20.4173 27.3567 20.4173 26.6663Z" fill="#1C1C1C"/>
</svg>
