<svg width="40" height="41" viewBox="0 0 40 41" fill="none" xmlns="http://www.w3.org/2000/svg">
<path d="M20 30.1774C21.914 30.1774 23.785 29.6098 25.3765 28.5465C26.9679 27.4831 28.2083 25.9717 28.9408 24.2034C29.6732 22.4351 29.8649 20.4893 29.4915 18.612C29.118 16.7348 28.1964 15.0104 26.843 13.657C25.4895 12.3036 23.7652 11.3819 21.888 11.0085C20.0107 10.6351 18.0649 10.8268 16.2966 11.5592C14.5283 12.2917 13.0169 13.5321 11.9535 15.1235C10.8901 16.715 10.3226 18.586 10.3226 20.5C10.3226 23.0666 11.3422 25.5281 13.157 27.343C14.9719 29.1578 17.4334 30.1774 20 30.1774ZM20 14.6935C21.1484 14.6935 22.271 15.0341 23.2259 15.6721C24.1807 16.3101 24.925 17.217 25.3644 18.278C25.8039 19.339 25.9189 20.5064 25.6949 21.6328C25.4708 22.7591 24.9178 23.7937 24.1058 24.6058C23.2937 25.4178 22.2591 25.9708 21.1328 26.1949C20.0064 26.4189 18.8389 26.3039 17.778 25.8645C16.717 25.425 15.8101 24.6808 15.1721 23.7259C14.5341 22.771 14.1935 21.6484 14.1935 20.5C14.1935 18.96 14.8053 17.4831 15.8942 16.3942C16.9831 15.3053 18.46 14.6935 20 14.6935Z" fill="#A05381"/>
<path d="M6.19029 12.4377C6.72476 11.5119 6.40758 10.3282 5.48185 9.79373C4.55613 9.25926 3.3724 9.57644 2.83794 10.5022C2.30347 11.4279 2.62064 12.6116 3.54637 13.1461C4.4721 13.6806 5.65582 13.3634 6.19029 12.4377Z" fill="#A05381"/>
<path d="M11.9335 6.69013C12.8592 6.15566 13.1764 4.97193 12.6419 4.04621C12.1074 3.12048 10.9237 2.8033 9.99799 3.33777C9.07226 3.87224 8.75508 5.05596 9.28955 5.98169C9.82402 6.90742 11.0077 7.22459 11.9335 6.69013Z" fill="#A05381"/>
<path d="M20 0.5H18.0645V4.37097H20C23.19 4.37097 26.3084 5.31692 28.9608 7.0892C31.6132 8.86148 33.6805 11.3805 34.9013 14.3277C36.122 17.2749 36.4415 20.5179 35.8191 23.6466C35.1968 26.7753 33.6606 29.6493 31.4049 31.9049C29.1493 34.1606 26.2753 35.6968 23.1466 36.3191C20.0179 36.9415 16.7749 36.622 13.8277 35.4013C10.8805 34.1805 8.36148 32.1132 6.5892 29.4608C4.81692 26.8084 3.87097 23.69 3.87097 20.5V18.5645H0V20.5C0 24.4556 1.17298 28.3224 3.37061 31.6114C5.56823 34.9004 8.69181 37.4638 12.3463 38.9776C16.0009 40.4913 20.0222 40.8874 23.9018 40.1157C27.7814 39.344 31.3451 37.4392 34.1421 34.6421C36.9392 31.8451 38.844 28.2814 39.6157 24.4018C40.3874 20.5222 39.9913 16.5009 38.4776 12.8463C36.9638 9.19181 34.4004 6.06823 31.1114 3.87061C27.8224 1.67298 23.9556 0.5 20 0.5Z" fill="#A05381"/>
</svg>
