<svg width="42" height="43" viewBox="0 0 42 43" fill="none" xmlns="http://www.w3.org/2000/svg">
<path d="M32.1114 10.3886C32.1114 11.6156 31.1164 12.6111 29.8879 12.6111C28.6629 12.6111 27.6679 11.6156 27.6679 10.3886C27.6679 9.16108 28.6629 8.16656 29.8879 8.16656C31.1159 8.16656 32.1114 9.16158 32.1114 10.3886Z" fill="white" stroke="#A05381" stroke-width="2" stroke-miterlimit="10" stroke-linecap="round" stroke-linejoin="round"/>
<path d="M14.333 21.4987C14.333 22.7273 13.3375 23.7223 12.1095 23.7223C10.884 23.7223 9.88849 22.7273 9.88849 21.4987C9.88849 20.2717 10.884 19.2777 12.1095 19.2777C13.3375 19.2777 14.333 20.2717 14.333 21.4987Z" fill="white" stroke="#A05381" stroke-width="2" stroke-miterlimit="10" stroke-linecap="round" stroke-linejoin="round"/>
<path d="M38.7785 25.9434C40.0054 25.9434 41 24.9487 41 23.7218C41 22.4949 40.0054 21.5003 38.7785 21.5003C37.5516 21.5003 36.5569 22.4949 36.5569 23.7218C36.5569 24.9487 37.5516 25.9434 38.7785 25.9434Z" fill="white" stroke="#A05381" stroke-width="2" stroke-miterlimit="10" stroke-linecap="round" stroke-linejoin="round"/>
<path d="M23.2226 30.3883C23.2226 31.6158 22.2271 32.6099 20.9991 32.6099C19.7736 32.6099 18.7781 31.6158 18.7781 30.3883C18.7781 29.1613 19.7736 28.1673 20.9991 28.1673C22.2271 28.1673 23.2226 29.1613 23.2226 30.3883Z" fill="white" stroke="#A05381" stroke-width="2" stroke-miterlimit="10" stroke-linecap="round" stroke-linejoin="round"/>
<path d="M5.44402 39.2785C5.44402 40.5045 4.44852 41.5 3.22101 41.5C1.9955 41.5 1 40.5045 1 39.2785C1 38.051 1.9955 37.0575 3.22101 37.0575C4.44852 37.0565 5.44402 38.051 5.44402 39.2785Z" fill="white" stroke="#A05381" stroke-width="2" stroke-miterlimit="10" stroke-linecap="round" stroke-linejoin="round"/>
<path d="M38.7785 5.94305C40.0054 5.94305 41 4.94844 41 3.72153C41 2.49461 40.0054 1.5 38.7785 1.5C37.5516 1.5 36.5569 2.49461 36.5569 3.72153C36.5569 4.94844 37.5516 5.94305 38.7785 5.94305Z" fill="white" stroke="#A05381" stroke-width="2" stroke-miterlimit="10" stroke-linecap="round" stroke-linejoin="round"/>
<path d="M23.2226 14.8327C23.2226 16.0602 22.2271 17.0557 20.9991 17.0557C19.7736 17.0557 18.7781 16.0602 18.7781 14.8327C18.7781 13.6056 19.7736 12.6116 20.9991 12.6116C22.2271 12.6111 23.2226 13.6051 23.2226 14.8327Z" fill="white" stroke="#A05381" stroke-width="2" stroke-miterlimit="10" stroke-linecap="round" stroke-linejoin="round"/>
<path d="M5.44402 23.7213C5.44402 24.9488 4.44852 25.9428 3.22101 25.9428C1.9955 25.9428 1 24.9488 1 23.7213C1 22.4942 1.9955 21.4987 3.22101 21.4987C4.44852 21.4987 5.44402 22.4942 5.44402 23.7213Z" fill="white" stroke="#A05381" stroke-width="2" stroke-miterlimit="10" stroke-linecap="round" stroke-linejoin="round"/>
<path d="M14.333 32.6114C14.333 33.8374 13.3375 34.8324 12.1095 34.8324C10.884 34.8324 9.88849 33.8374 9.88849 32.6114C9.88849 31.3838 10.884 30.3898 12.1095 30.3898C13.3375 30.3883 14.333 31.3838 14.333 32.6114Z" fill="white" stroke="#A05381" stroke-width="2" stroke-miterlimit="10" stroke-linecap="round" stroke-linejoin="round"/>
<path d="M32.1114 39.2785C32.1114 40.5045 31.1164 41.5001 29.8879 41.5001C28.6629 41.5001 27.6679 40.5045 27.6679 39.2785C27.6679 38.051 28.6629 37.0575 29.8879 37.0575C31.1159 37.0565 32.1114 38.051 32.1114 39.2785Z" fill="white" stroke="#A05381" stroke-width="2" stroke-miterlimit="10" stroke-linecap="round" stroke-linejoin="round"/>
<path d="M38.2396 5.87054L30.425 37.1289" stroke="#A05381" stroke-width="2" stroke-miterlimit="10" stroke-linecap="round" stroke-linejoin="round"/>
<path d="M20.0101 16.8127L13.1001 30.6319" stroke="#A05381" stroke-width="2" stroke-miterlimit="10" stroke-linecap="round" stroke-linejoin="round"/>
<path d="M29.132 37.1974L21.756 16.9142" stroke="#A05381" stroke-width="2" stroke-miterlimit="10" stroke-linecap="round" stroke-linejoin="round"/>
<path d="M10.5405 31.0399L4.79243 25.2928" stroke="#A05381" stroke-width="2" stroke-miterlimit="10" stroke-linecap="round" stroke-linejoin="round"/>
<path d="M37.5456 21.8733L31.1206 12.2366" stroke="#A05381" stroke-width="2" stroke-miterlimit="10" stroke-linecap="round" stroke-linejoin="round"/>
<path d="M28.9876 12.4161L21.9016 28.3623" stroke="#A05381" stroke-width="2" stroke-miterlimit="10" stroke-linecap="round" stroke-linejoin="round"/>
<path d="M4.21162 37.2989L11.1207 23.4792" stroke="#A05381" stroke-width="2" stroke-miterlimit="10" stroke-linecap="round" stroke-linejoin="round"/>
<path d="M19.4285 28.8179L13.6815 23.0713" stroke="#A05381" stroke-width="2" stroke-miterlimit="10" stroke-linecap="round" stroke-linejoin="round"/>
</svg>
