<svg width="16" height="17" viewBox="0 0 16 17" fill="none" xmlns="http://www.w3.org/2000/svg">
<g id="Icon after">
<path id="Vector" fill-rule="evenodd" clip-rule="evenodd" d="M5.528 7.6118C5.40347 7.73773 5.33362 7.90769 5.33362 8.0848C5.33362 8.26191 5.40347 8.43187 5.528 8.5578L7.48734 10.5345C7.63267 10.6778 7.82067 10.7491 8.00667 10.7491C8.19267 10.7491 8.37734 10.6778 8.51934 10.5345L10.4727 8.56446C10.597 8.43845 10.6668 8.26852 10.6668 8.09146C10.6668 7.91441 10.597 7.74448 10.4727 7.61846C10.4115 7.55634 10.3385 7.50701 10.258 7.47334C10.1776 7.43967 10.0912 7.42233 10.004 7.42233C9.91679 7.42233 9.83044 7.43967 9.74998 7.47334C9.66952 7.50701 9.59656 7.55634 9.53534 7.61846L8.00334 9.16313L6.46534 7.6118C6.40398 7.54992 6.33098 7.5008 6.25054 7.46728C6.1701 7.43376 6.08382 7.4165 5.99667 7.4165C5.90953 7.4165 5.82325 7.43376 5.74281 7.46728C5.66237 7.5008 5.58936 7.54992 5.528 7.6118Z" fill="#666"/>
</g>
</svg>
