<svg width="16" height="16" viewBox="0 0 16 16" fill="none" xmlns="http://www.w3.org/2000/svg">
<g clip-path="url(#clip0_1264_72089)">
<path fill-rule="evenodd" clip-rule="evenodd" d="M9.83792 1.74779C11.057 0.52873 13.0335 0.52873 14.2525 1.74779C15.4716 2.96686 15.4716 4.94335 14.2525 6.16242L7.92901 12.486C7.56773 12.8473 7.35506 13.0599 7.11846 13.2445C6.8396 13.462 6.53786 13.6485 6.2186 13.8006C5.94774 13.9297 5.66239 14.0248 5.17765 14.1864L2.9569 14.9266L2.42218 15.1049C1.98848 15.2494 1.51031 15.1366 1.18704 14.8133C0.863776 14.49 0.750898 14.0119 0.895467 13.5782L1.81395 10.8227C1.97551 10.338 2.07062 10.0526 2.19971 9.78174C2.35186 9.46248 2.53834 9.16074 2.75585 8.88188C2.94039 8.64528 3.15309 8.4326 3.51441 8.07131L9.83792 1.74779ZM2.93384 13.8802L4.82818 13.2488C5.35559 13.073 5.57968 12.9974 5.78838 12.8979C6.04208 12.777 6.28185 12.6288 6.50344 12.456C6.68574 12.3138 6.85358 12.1472 7.24669 11.7541L12.293 6.70774C11.7672 6.5223 11.0899 6.17858 10.4558 5.5445C9.82176 4.91042 9.47803 4.23309 9.2926 3.70733L4.24628 8.75365C3.85317 9.14676 3.68655 9.31459 3.54436 9.4969C3.37152 9.71849 3.22334 9.95826 3.10243 10.212C3.00297 10.4207 2.92736 10.6447 2.75156 11.1722L2.12011 13.0665L2.93384 13.8802ZM10.1037 2.89619C10.1265 3.01283 10.1651 3.17139 10.2294 3.35675C10.3742 3.77405 10.6476 4.32208 11.1629 4.83739C11.6783 5.3527 12.2263 5.62619 12.6436 5.77096C12.8289 5.83527 12.9875 5.8738 13.1041 5.8966L13.5454 5.45531C14.374 4.62677 14.374 3.28344 13.5454 2.4549C12.7169 1.62636 11.3736 1.62636 10.545 2.4549L10.1037 2.89619Z" fill="#1C1C1C"/>
</g>
<defs>
<clipPath id="clip0_1264_72089">
<rect width="16" height="16" fill="white"/>
</clipPath>
</defs>
</svg>
