<svg width="16" height="16" viewBox="0 0 16 16" fill="none" xmlns="http://www.w3.org/2000/svg">
<g id="Linear / Essentional, UI / Magic Stick 4">
<path id="Vector" d="M2.56302 5.28151C1.81233 4.53082 1.81233 3.31371 2.56302 2.56302C3.31371 1.81233 4.53082 1.81233 5.28151 2.56302L13.437 10.7185C14.1877 11.4692 14.1877 12.6863 13.437 13.437C12.6863 14.1877 11.4692 14.1877 10.7185 13.437L2.56302 5.28151Z" stroke="white" stroke-width="1.5"/>
<path id="Vector_2" d="M4 6.66667L6.66667 4" stroke="white" stroke-width="1.5" stroke-linecap="round"/>
<path id="Vector_3" d="M10.7335 1.53829C10.8408 1.26523 11.2258 1.26523 11.3331 1.53829L11.62 2.26848C11.6528 2.35184 11.7185 2.41784 11.8016 2.45072L12.5291 2.7387C12.8011 2.84639 12.8011 3.23283 12.5291 3.34052L11.8016 3.62851C11.7185 3.66139 11.6528 3.72738 11.62 3.81074L11.3331 4.54093C11.2258 4.81399 10.8408 4.81399 10.7335 4.54094L10.4466 3.81074C10.4138 3.72738 10.3481 3.66139 10.265 3.62851L9.53755 3.34052C9.26548 3.23283 9.26548 2.84639 9.53755 2.7387L10.265 2.45072C10.3481 2.41784 10.4138 2.35184 10.4466 2.26848L10.7335 1.53829Z" stroke="white"/>
<path id="Vector_4" d="M13.3116 6.08614C13.4189 5.81308 13.804 5.81308 13.9112 6.08614L14.0158 6.35237C14.0486 6.43574 14.1144 6.50173 14.1974 6.5346L14.4626 6.6396C14.7347 6.7473 14.7347 7.13377 14.4626 7.24144L14.1974 7.34644C14.1144 7.3793 14.0486 7.4453 14.0158 7.52864L13.9112 7.7949C13.804 8.06797 13.4189 8.06797 13.3116 7.7949L13.207 7.52864C13.1742 7.4453 13.1085 7.3793 13.0254 7.34644L12.7602 7.24144C12.4882 7.13377 12.4882 6.7473 12.7602 6.6396L13.0254 6.5346C13.1085 6.50173 13.1742 6.43574 13.207 6.35237L13.3116 6.08614Z" stroke="white"/>
<path id="Vector_5" d="M3.42197 10.2048C3.52926 9.93173 3.91428 9.93173 4.02158 10.2048L4.12619 10.471C4.15895 10.5544 4.2247 10.6204 4.30776 10.6533L4.573 10.7583C4.84506 10.8659 4.84506 11.2524 4.573 11.3601L4.30776 11.4651C4.2247 11.4979 4.15895 11.5639 4.12619 11.6473L4.02158 11.9135C3.91428 12.1866 3.52926 12.1866 3.42197 11.9135L3.31736 11.6473C3.2846 11.5639 3.21885 11.4979 3.13579 11.4651L2.87054 11.3601C2.59849 11.2524 2.59849 10.8659 2.87054 10.7583L3.13579 10.6533C3.21885 10.6204 3.2846 10.5544 3.31736 10.471L3.42197 10.2048Z" stroke="white"/>
</g>
</svg>
