<svg width="16" height="16" viewBox="0 0 16 16" fill="none" xmlns="http://www.w3.org/2000/svg">
<path d="M9.64628 6.98011C9.84155 6.78484 10.1581 6.78484 10.3534 6.98011C10.5487 7.17537 10.5487 7.49195 10.3534 7.68721L8.35339 9.68721C8.15813 9.88247 7.84155 9.88247 7.64628 9.68721L5.64628 7.68721C5.45102 7.49195 5.45102 7.17537 5.64628 6.98011C5.84155 6.78484 6.15813 6.78484 6.35339 6.98011L7.49984 8.12655V2.66699C7.49984 2.39085 7.7237 2.16699 7.99984 2.16699C8.27598 2.16699 8.49984 2.39085 8.49984 2.66699V8.12655L9.64628 6.98011Z" fill="#1C1C1C"/>
<path d="M13.8332 8.00033C13.8332 7.72418 13.6093 7.50033 13.3332 7.50033C13.057 7.50033 12.8332 7.72418 12.8332 8.00033C12.8332 10.6697 10.6692 12.8337 7.99984 12.8337C5.33046 12.8337 3.1665 10.6697 3.1665 8.00033C3.1665 7.72418 2.94265 7.50033 2.6665 7.50033C2.39036 7.50033 2.1665 7.72418 2.1665 8.00033C2.1665 11.222 4.77818 13.8337 7.99984 13.8337C11.2215 13.8337 13.8332 11.222 13.8332 8.00033Z" fill="#1C1C1C"/>
</svg>
