<svg width="16" height="16" viewBox="0 0 16 16" fill="none" xmlns="http://www.w3.org/2000/svg">
<path d="M1 8.5C1 5.90728 1 4.61091 1.80546 3.80546C2.61091 3 3.90727 3 6.5 3H9.25C11.8427 3 13.1391 3 13.9445 3.80546C14.75 4.61091 14.75 5.90728 14.75 8.5C14.75 11.0927 14.75 12.3891 13.9445 13.1945C13.1391 14 11.8427 14 9.25 14H6.5C3.90727 14 2.61091 14 1.80546 13.1945C1 12.3891 1 11.0927 1 8.5Z" stroke="#1C1C1C"/>
<path d="M3.74951 5.74951L5.23375 6.98638C6.49644 8.03862 7.12778 8.56474 7.87451 8.56474C8.62124 8.56474 9.25258 8.03862 10.5153 6.98638L11.9995 5.74951" stroke="#1C1C1C" stroke-linecap="round"/>
</svg>
