<svg width="16" height="16" viewBox="0 0 16 16" fill="none" xmlns="http://www.w3.org/2000/svg">
<g clip-path="url(#clip0_1264_72074)">
<path fill-rule="evenodd" clip-rule="evenodd" d="M7.96358 0.833496H8.03675C8.94847 0.833483 9.68335 0.833472 10.2613 0.911179C10.8614 0.991856 11.3667 1.16445 11.7679 1.56573C12.2613 2.05905 12.4138 2.71694 12.4676 3.53311C12.631 3.54402 12.7843 3.55853 12.928 3.57785C13.5281 3.65852 14.0333 3.83112 14.4346 4.2324C14.8359 4.63367 15.0085 5.13892 15.0891 5.739C15.1669 6.31697 15.1668 7.05186 15.1668 7.96358V8.03674C15.1668 8.94847 15.1669 9.68335 15.0891 10.2613C15.0085 10.8614 14.8359 11.3667 14.4346 11.7679C13.9413 12.2613 13.2834 12.4138 12.4672 12.4676C12.4563 12.631 12.4418 12.7843 12.4225 12.928C12.3418 13.5281 12.1692 14.0333 11.7679 14.4346C11.3667 14.8359 10.8614 15.0085 10.2613 15.0891C9.68335 15.1669 8.94847 15.1668 8.03674 15.1668H7.96358C7.05186 15.1668 6.31697 15.1669 5.739 15.0891C5.13892 15.0085 4.63367 14.8359 4.2324 14.4346C3.83112 14.0333 3.65852 13.5281 3.57784 12.928C3.55853 12.7843 3.54402 12.631 3.53311 12.4676C2.71694 12.4138 2.05905 12.2612 1.56573 11.7679C1.16445 11.3667 0.991856 10.8614 0.911179 10.2613C0.833472 9.68335 0.833483 8.94847 0.833496 8.03675V7.96358C0.833483 7.05185 0.833472 6.31697 0.911179 5.739C0.991856 5.13892 1.16445 4.63367 1.56573 4.2324C1.96701 3.83112 2.47226 3.65852 3.07233 3.57785C3.21599 3.55853 3.36934 3.54402 3.53269 3.53311C3.58651 2.71694 3.73908 2.05905 4.2324 1.56573C4.63367 1.16445 5.13892 0.991856 5.73899 0.911179C6.31697 0.833472 7.05185 0.833483 7.96358 0.833496ZM4.53826 3.50213C4.7762 3.50016 5.02892 3.50016 5.29691 3.50016H10.7034C10.9714 3.50016 11.2241 3.50016 11.4621 3.50213C11.4074 2.82156 11.2845 2.49651 11.0608 2.27284C10.8763 2.08833 10.6173 1.96803 10.1281 1.90226C9.62452 1.83456 8.95711 1.8335 8.00016 1.8335C7.04322 1.8335 6.37581 1.83456 5.87224 1.90226C5.38306 1.96803 5.12401 2.08833 4.9395 2.27284C4.71583 2.49651 4.59289 2.82156 4.53826 3.50213ZM3.50212 11.4621C3.50015 11.2241 3.50016 10.9714 3.50016 10.7034L3.50016 8.75169L3.20496 8.75169C2.95305 8.8648 2.65714 8.75228 2.54403 8.50036C2.43092 8.24844 2.54345 7.95253 2.79536 7.83943L8.00016 7.83943L13.205 7.83943C13.4569 7.95253 13.5694 8.24844 13.4563 8.50036C13.3432 8.75228 13.0473 8.8648 12.7954 8.75169L12.4733 8.75169L12.5002 10.7034C12.5002 10.9714 12.5002 11.2241 12.4982 11.4621C13.1788 11.4074 13.5038 11.2845 13.7275 11.0608C13.912 10.8763 14.0323 10.6173 14.0981 10.1281C14.1658 9.62452 14.1668 8.95711 14.1668 8.00016C14.1668 7.04322 14.1658 6.37581 14.0981 5.87224C14.0323 5.38306 13.912 5.12401 13.7275 4.9395C13.543 4.75499 13.2839 4.6347 12.7947 4.56893C12.2912 4.50123 11.6238 4.50016 10.6668 4.50016H5.3335C4.37655 4.50016 3.70914 4.50123 3.20558 4.56893C2.71639 4.6347 2.45735 4.75499 2.27284 4.9395C2.08833 5.12401 1.96803 5.38306 1.90226 5.87224C1.83456 6.37581 1.8335 7.04322 1.8335 8.00016C1.8335 8.95711 1.83456 9.62452 1.90226 10.1281C1.96803 10.6173 2.08833 10.8763 2.27284 11.0608C2.49651 11.2845 2.82156 11.4074 3.50212 11.4621ZM11.5002 8.95154L8.03675 8.95154H4.50016L4.50016 10.6668C4.50016 11.6238 4.50122 12.2912 4.56893 12.7947C4.6347 13.2839 4.75499 13.543 4.9395 13.7275C5.12401 13.912 5.38306 14.0323 5.87224 14.0981C6.37581 14.1658 7.04322 14.1668 8.00016 14.1668C8.95711 14.1668 9.62452 14.1658 10.1281 14.0981C10.6173 14.0323 10.8763 13.912 11.0608 13.7275C11.2453 13.543 11.3656 13.2839 11.4314 12.7947C11.4991 12.2912 11.5002 11.6238 11.5002 10.6668V8.95154Z" fill="#1C1C1C"/>
</g>
<defs>
<clipPath id="clip0_1264_72074">
<rect width="16" height="16" fill="white"/>
</clipPath>
</defs>
</svg>
