<svg width="26" height="30" viewBox="0 0 26 30" fill="none" xmlns="http://www.w3.org/2000/svg">
<path fill-rule="evenodd" clip-rule="evenodd" d="M6.46504 0.667046C6.52911 0.667074 6.59413 0.667103 6.66011 0.667103H19.3401C19.4061 0.667103 19.4711 0.667074 19.5351 0.667046C20.8908 0.666453 21.8238 0.666044 22.6095 0.939453C24.0935 1.4558 25.2456 2.65001 25.7396 4.15444L24.7895 4.46639L25.7396 4.15444C26.001 4.9506 26.0006 5.89705 26.0001 7.30239C26.0001 7.36528 26.0001 7.42909 26.0001 7.49385V26.166C26.0001 28.1197 23.6975 29.2828 22.1809 27.895C22.0749 27.798 21.9253 27.798 21.8193 27.895L21.1752 28.4844C19.9376 29.6169 18.0626 29.6169 16.825 28.4844C16.3517 28.0513 15.6485 28.0513 15.1752 28.4844C13.9376 29.6169 12.0626 29.6169 10.825 28.4844C10.3517 28.0513 9.64849 28.0513 9.17518 28.4844C7.93759 29.6169 6.06259 29.6169 4.82501 28.4844L4.18088 27.895C4.07491 27.798 3.92527 27.798 3.8193 27.895C2.30273 29.2828 8.98778e-05 28.1197 8.98778e-05 26.166V7.49385C8.98778e-05 7.42909 6.67512e-05 7.36529 4.39425e-05 7.30239C-0.000465002 5.89705 -0.000807762 4.9506 0.260595 4.15444C0.754543 2.65001 1.90669 1.4558 3.39064 0.939453C4.1764 0.666044 5.10938 0.666453 6.46504 0.667046ZM6.66011 2.6671C5.032 2.6671 4.4712 2.68108 4.0479 2.82837C3.16874 3.13428 2.46558 3.85003 2.1608 4.77833C2.01269 5.22943 2.00009 5.82428 2.00009 7.49385V26.166C2.00009 26.3248 2.07998 26.4218 2.18023 26.4681C2.23245 26.4923 2.28352 26.4985 2.32607 26.4928C2.36359 26.4878 2.41214 26.4717 2.46913 26.4195C3.33937 25.6232 4.66081 25.6232 5.53105 26.4195L6.17517 27.0089C6.64849 27.4421 7.35169 27.4421 7.825 27.0089C9.06259 25.8765 10.9376 25.8765 12.1752 27.0089C12.6485 27.4421 13.3517 27.4421 13.825 27.0089C15.0626 25.8765 16.9376 25.8765 18.1752 27.0089C18.6485 27.4421 19.3517 27.4421 19.825 27.0089L20.4691 26.4195C21.3394 25.6232 22.6608 25.6232 23.531 26.4195C23.588 26.4717 23.6366 26.4878 23.6741 26.4928C23.7167 26.4985 23.7677 26.4923 23.82 26.4682C23.9202 26.4218 24.0001 26.3248 24.0001 26.166V7.49385C24.0001 5.82428 23.9875 5.22943 23.8394 4.77833C23.5346 3.85003 22.8314 3.13428 21.9523 2.82837C21.529 2.68108 20.9682 2.6671 19.3401 2.6671H6.66011ZM5.33342 9.00044C5.33342 8.44815 5.78114 8.00044 6.33342 8.00044H7.00009C7.55237 8.00044 8.00009 8.44815 8.00009 9.00044C8.00009 9.55272 7.55237 10.0004 7.00009 10.0004H6.33342C5.78114 10.0004 5.33342 9.55272 5.33342 9.00044ZM10.0001 9.00044C10.0001 8.44815 10.4478 8.00044 11.0001 8.00044H19.6668C20.219 8.00044 20.6668 8.44815 20.6668 9.00044C20.6668 9.55272 20.219 10.0004 19.6668 10.0004H11.0001C10.4478 10.0004 10.0001 9.55272 10.0001 9.00044ZM5.33342 13.6671C5.33342 13.1148 5.78114 12.6671 6.33342 12.6671H7.00009C7.55237 12.6671 8.00009 13.1148 8.00009 13.6671C8.00009 14.2194 7.55237 14.6671 7.00009 14.6671H6.33342C5.78114 14.6671 5.33342 14.2194 5.33342 13.6671ZM10.0001 13.6671C10.0001 13.1148 10.4478 12.6671 11.0001 12.6671H19.6668C20.219 12.6671 20.6668 13.1148 20.6668 13.6671C20.6668 14.2194 20.219 14.6671 19.6668 14.6671H11.0001C10.4478 14.6671 10.0001 14.2194 10.0001 13.6671ZM5.33342 18.3338C5.33342 17.7815 5.78114 17.3338 6.33342 17.3338H7.00009C7.55237 17.3338 8.00009 17.7815 8.00009 18.3338C8.00009 18.8861 7.55237 19.3338 7.00009 19.3338H6.33342C5.78114 19.3338 5.33342 18.8861 5.33342 18.3338ZM10.0001 18.3338C10.0001 17.7815 10.4478 17.3338 11.0001 17.3338H19.6668C20.219 17.3338 20.6668 17.7815 20.6668 18.3338C20.6668 18.8861 20.219 19.3338 19.6668 19.3338H11.0001C10.4478 19.3338 10.0001 18.8861 10.0001 18.3338Z" fill="#B0B0B0"/>
</svg>
