<svg width="14" height="15" viewBox="0 0 14 15" fill="none" xmlns="http://www.w3.org/2000/svg">
<path id="Search" fill-rule="evenodd" clip-rule="evenodd" d="M9.47653 11.6407C8.49572 12.3392 7.29583 12.75 6 12.75C2.68629 12.75 0 10.0637 0 6.75C0 3.43629 2.68629 0.75 6 0.75C9.31371 0.75 12 3.43629 12 6.75C12 8.04583 11.5892 9.24572 10.8907 10.2265L13.7071 13.0429C14.0976 13.4334 14.0976 14.0666 13.7071 14.4571C13.3166 14.8476 12.6834 14.8476 12.2929 14.4571L9.47653 11.6407ZM10 6.75C10 8.95914 8.20914 10.75 6 10.75C3.79086 10.75 2 8.95914 2 6.75C2 4.54086 3.79086 2.75 6 2.75C8.20914 2.75 10 4.54086 10 6.75Z" fill="#ccc"/>
</svg>
