<svg width="16" height="16" viewBox="0 0 16 16" fill="none" xmlns="http://www.w3.org/2000/svg">
<path fill-rule="evenodd" clip-rule="evenodd" d="M8 0C8.24547 0 8.44444 0.198984 8.44444 0.444444V2.22222C8.44444 2.46769 8.24547 2.66667 8 2.66667C7.75453 2.66667 7.55556 2.46769 7.55556 2.22222V0.444444C7.55556 0.198984 7.75453 0 8 0ZM8.44444 4C8.44444 3.75453 8.24547 3.55556 8 3.55556C7.75453 3.55556 7.55556 3.75453 7.55556 4V5.77778C7.55556 6.02324 7.75453 6.22222 8 6.22222C8.24547 6.22222 8.44444 6.02324 8.44444 5.77778V4ZM8.44444 13.7778C8.44444 13.5323 8.24547 13.3333 8 13.3333C7.75453 13.3333 7.55556 13.5323 7.55556 13.7778V15.5556C7.55556 15.801 7.75453 16 8 16C8.24547 16 8.44444 15.801 8.44444 15.5556V13.7778ZM6.65436 12.4895C6.74631 12.2619 6.63636 12.0029 6.40878 11.9109C6.18118 11.819 5.92216 11.9289 5.8302 12.1565L5.16422 13.8048C5.07229 14.0324 5.18224 14.2915 5.40982 14.3834C5.6374 14.4754 5.89644 14.3654 5.9884 14.1378L6.65436 12.4895ZM10.5902 1.6166C10.8178 1.70856 10.9277 1.96758 10.8358 2.19518L10.1698 3.84349C10.0778 4.07109 9.8188 4.18104 9.59122 4.08909C9.36362 3.99713 9.25369 3.73809 9.34562 3.51051L10.0116 1.86218C10.1036 1.6346 10.3626 1.52464 10.5902 1.6166ZM5.81909 3.84802C5.91104 4.0756 6.17007 4.18556 6.39767 4.0936C6.62524 4.00164 6.7352 3.74262 6.64324 3.51502L5.97729 1.86671C5.88533 1.63911 5.62629 1.52916 5.39871 1.62111C5.17113 1.71307 5.06118 1.97209 5.15313 2.19969L5.81909 3.84802ZM10.6013 14.3789C10.3737 14.4708 10.1147 14.3609 10.0227 14.1333L9.35676 12.485C9.26482 12.2574 9.37478 11.9983 9.60236 11.9064C9.82993 11.8144 10.089 11.9244 10.1809 12.152L10.8469 13.8003C10.9388 14.0279 10.8289 14.2869 10.6013 14.3789ZM3.51053 6.65436C3.73811 6.74631 3.99716 6.63636 4.08909 6.40878C4.18104 6.1812 4.07109 5.92216 3.84351 5.8302L2.19518 5.16424C1.9676 5.07229 1.70856 5.18224 1.6166 5.40982C1.52467 5.63742 1.63462 5.89644 1.8622 5.9884L3.51053 6.65436ZM14.3834 10.5902C14.2915 10.8178 14.0324 10.9277 13.8048 10.8358L12.1565 10.1698C11.9289 10.0778 11.819 9.8188 11.9109 9.59122C12.0029 9.36364 12.2619 9.25369 12.4895 9.34562L14.1378 10.0116C14.3654 10.1036 14.4754 10.3626 14.3834 10.5902ZM12.152 5.81909C11.9244 5.91102 11.8144 6.17007 11.9064 6.39764C11.9984 6.62524 12.2574 6.7352 12.485 6.64324L14.1333 5.97727C14.3609 5.88533 14.4708 5.62629 14.3789 5.39871C14.2869 5.17111 14.0279 5.06116 13.8003 5.15311L12.152 5.81909ZM1.62113 10.6013C1.52918 10.3737 1.63913 10.1147 1.86673 10.0227L3.51504 9.35676C3.74264 9.2648 4.00167 9.37475 4.09362 9.60233C4.18558 9.82993 4.07562 10.089 3.84804 10.1809L2.19971 10.8469C1.97213 10.9388 1.71309 10.8289 1.62113 10.6013ZM2.22222 8.44444C2.46769 8.44444 2.66667 8.24547 2.66667 8C2.66667 7.75453 2.46769 7.55556 2.22222 7.55556H0.444444C0.198984 7.55556 0 7.75453 0 8C0 8.24547 0.198984 8.44444 0.444444 8.44444H2.22222ZM16 8C16 8.24547 15.801 8.44444 15.5556 8.44444H13.7778C13.5323 8.44444 13.3333 8.24547 13.3333 8C13.3333 7.75453 13.5323 7.55556 13.7778 7.55556H15.5556C15.801 7.55556 16 7.75453 16 8ZM8.44444 10.2222C8.44444 9.97676 8.24547 9.77778 8 9.77778C7.75453 9.77778 7.55556 9.97676 7.55556 10.2222V12C7.55556 12.2455 7.75453 12.4444 8 12.4444C8.24547 12.4444 8.44444 12.2455 8.44444 12V10.2222ZM12.4444 8C12.4444 8.24547 12.2455 8.44444 12 8.44444H10.2222C9.97676 8.44444 9.77778 8.24547 9.77778 8C9.77778 7.75453 9.97676 7.55556 10.2222 7.55556H12C12.2455 7.55556 12.4444 7.75453 12.4444 8ZM5.77778 8.44444C6.02324 8.44444 6.22222 8.24547 6.22222 8C6.22222 7.75453 6.02324 7.55556 5.77778 7.55556H4C3.75453 7.55556 3.55556 7.75453 3.55556 8C3.55556 8.24547 3.75453 8.44444 4 8.44444H5.77778ZM11.1427 4.85731C11.3163 5.03087 11.3163 5.31227 11.1427 5.48584L9.88562 6.74291C9.71204 6.91649 9.43064 6.91649 9.25707 6.74291C9.08351 6.56936 9.08351 6.28796 9.25707 6.11438L10.5142 4.85731C10.6877 4.68373 10.9691 4.68373 11.1427 4.85731ZM4.22878 12.3998C4.40233 12.2262 4.40233 11.9448 4.22878 11.7712C4.0552 11.5977 3.7738 11.5977 3.60022 11.7712L2.34316 13.0283C2.16958 13.2019 2.16958 13.4833 2.34316 13.6568C2.51671 13.8304 2.79811 13.8304 2.97169 13.6568L4.22878 12.3998ZM13.6568 2.34316C13.8304 2.51671 13.8304 2.79811 13.6568 2.97169L12.3998 4.22876C12.2262 4.40233 11.9448 4.40233 11.7712 4.22876C11.5977 4.0552 11.5977 3.7738 11.7712 3.60022L13.0283 2.34316C13.2019 2.16958 13.4833 2.16958 13.6568 2.34316ZM3.60022 4.22876C3.7738 4.40233 4.0552 4.40233 4.22876 4.22876C4.40233 4.0552 4.40233 3.7738 4.22876 3.60022L2.97169 2.34316C2.79811 2.16958 2.51671 2.16958 2.34316 2.34316C2.16958 2.51671 2.16958 2.79811 2.34316 2.97169L3.60022 4.22876ZM13.6568 13.6568C13.4833 13.8304 13.2019 13.8304 13.0283 13.6568L11.7712 12.3998C11.5977 12.2262 11.5977 11.9448 11.7712 11.7712C11.9448 11.5977 12.2262 11.5977 12.3998 11.7712L13.6568 13.0283C13.8304 13.2019 13.8304 13.4833 13.6568 13.6568ZM6.74293 9.88562C6.91649 9.71204 6.91649 9.43064 6.74293 9.25709C6.56936 9.08351 6.28796 9.08351 6.11438 9.25709L4.85731 10.5142C4.68373 10.6877 4.68373 10.9691 4.85731 11.1427C5.03087 11.3163 5.31229 11.3163 5.48584 11.1427L6.74293 9.88562ZM11.1427 11.1427C10.9691 11.3163 10.6877 11.3163 10.5142 11.1427L9.25707 9.88562C9.08351 9.71204 9.08351 9.43064 9.25707 9.25709C9.43064 9.08351 9.71204 9.08351 9.88562 9.25709L11.1427 10.5142C11.3163 10.6877 11.3163 10.9691 11.1427 11.1427ZM6.11438 6.74291C6.28796 6.91649 6.56936 6.91649 6.74293 6.74291C6.91649 6.56936 6.91649 6.28796 6.74293 6.11438L5.48584 4.85731C5.31229 4.68373 5.03087 4.68373 4.85731 4.85731C4.68373 5.03087 4.68373 5.31227 4.85731 5.48584L6.11438 6.74291Z" fill="white"/>
</svg>
